<?xml version="1.0" encoding="utf-8"?>
<!-- Generator: Adobe Illustrator 22.0.1, SVG Export Plug-In . SVG Version: 6.00 Build 0)  -->
<svg version="1.1" id="Livello_1" xmlns="http://www.w3.org/2000/svg" xmlns:xlink="http://www.w3.org/1999/xlink" x="0px" y="0px"
	 viewBox="0 0 750 480.4" style="enable-background:new 0 0 750 480.4;" xml:space="preserve">
<style type="text/css">
	.st0{opacity:0.59;clip-path:url(#SVGID_2_);}
	.st1{fill:#353535;}
	.st2{clip-path:url(#SVGID_4_);}
	.st3{fill:#333333;}
	.st4{fill:#383838;}
	.st5{fill:#444444;}
	.st6{fill:#2D2D2D;}
	.st7{fill:#2C2C2C;}
	.st8{fill:#363636;}
	.st9{fill:#343434;}
	.st10{fill:#3C3C3C;}
	.st11{fill:#252525;}
	.st12{fill:#2B2B2B;}
	.st13{fill:#3A3A3A;}
	.st14{fill:#464646;}
	.st15{fill:#282828;}
	.st16{fill:#3B3B3B;}
	.st17{fill:#1B1B1B;}
	.st18{fill:#2A2A2A;}
	.st19{fill:#232323;}
	.st20{fill:#494949;}
	.st21{fill:#323232;}
	.st22{fill:#717171;}
	.st23{fill:#181818;}
	.st24{fill:#575757;}
	.st25{fill:#1C1C1C;}
	.st26{fill:#3E3E3E;}
	.st27{fill:#6B6B6B;}
	.st28{fill:#292929;}
	.st29{fill:#4A4A4A;}
	.st30{fill:#2F2F2F;}
	.st31{fill:#585858;}
	.st32{opacity:0.7;clip-path:url(#SVGID_4_);fill:#353535;}
</style>
<g>
	<defs>
		<rect id="SVGID_1_" x="0" y="0" width="750" height="480.4"/>
	</defs>
	<clipPath id="SVGID_2_">
		<use xlink:href="#SVGID_1_"  style="overflow:visible;"/>
	</clipPath>
	<g id="Front" class="st0">
		<g>
			<rect x="-43.4" y="0" class="st1" width="836.8" height="482"/>
			<g>
				<defs>
					<rect id="SVGID_3_" x="-43.4" y="0" width="836.8" height="482"/>
				</defs>
				<clipPath id="SVGID_4_">
					<use xlink:href="#SVGID_3_"  style="overflow:visible;"/>
				</clipPath>
				<g class="st2">
					<g>
						<g>
							<g>
								<g>
									<rect x="-45.7" y="-41.7" class="st3" width="35.1" height="35.1"/>
									
										<rect x="-10.6" y="-41.7" transform="matrix(-1 -1.224647e-16 1.224647e-16 -1 13.7936 -48.4335)" class="st4" width="35.1" height="35.1"/>
									<rect x="24.4" y="-41.7" class="st5" width="35.1" height="35.1"/>
									
										<rect x="59.5" y="-41.7" transform="matrix(-1 -1.224647e-16 1.224647e-16 -1 154.0232 -48.4335)" class="st6" width="35.1" height="35.1"/>
									
										<rect x="199.7" y="-41.7" transform="matrix(-1 -1.224647e-16 1.224647e-16 -1 434.4824 -48.4335)" class="st7" width="35.1" height="35.1"/>
									<rect x="164.7" y="-41.7" class="st8" width="35.1" height="35.1"/>
									
										<rect x="129.6" y="-41.7" transform="matrix(-1 -1.224647e-16 1.224647e-16 -1 294.2528 -48.4335)" class="st9" width="35.1" height="35.1"/>
									<rect x="94.5" y="-41.7" class="st10" width="35.1" height="35.1"/>
									<rect x="234.8" y="-41.7" class="st6" width="35.1" height="35.1"/>
									
										<rect x="269.8" y="-41.7" transform="matrix(-1 -1.224647e-16 1.224647e-16 -1 574.712 -48.4335)" class="st11" width="35.1" height="35.1"/>
									<rect x="304.9" y="-41.7" class="st7" width="35.1" height="35.1"/>
									
										<rect x="339.9" y="-41.7" transform="matrix(-1 -1.224647e-16 1.224647e-16 -1 714.9415 -48.4335)" class="st8" width="35.1" height="35.1"/>
									
										<rect x="760.6" y="-41.7" transform="matrix(-1 -1.224647e-16 1.224647e-16 -1 1556.3193 -48.4335)" class="st12" width="35.1" height="35.1"/>
									<rect x="725.6" y="-41.7" class="st13" width="35.1" height="35.1"/>
									
										<rect x="690.5" y="-41.7" transform="matrix(-1 -1.224647e-16 1.224647e-16 -1 1416.0895 -48.4335)" class="st14" width="35.1" height="35.1"/>
									<rect x="655.5" y="-41.7" class="st15" width="35.1" height="35.1"/>
									<rect x="515.2" y="-41.7" class="st16" width="35.1" height="35.1"/>
									
										<rect x="550.3" y="-41.7" transform="matrix(-1 -1.224647e-16 1.224647e-16 -1 1135.6302 -48.4335)" class="st11" width="35.1" height="35.1"/>
									<rect x="585.3" y="-41.7" class="st17" width="35.1" height="35.1"/>
									
										<rect x="620.4" y="-41.7" transform="matrix(-1 -1.224647e-16 1.224647e-16 -1 1275.8599 -48.4335)" class="st9" width="35.1" height="35.1"/>
									
										<rect x="480.2" y="-41.7" transform="matrix(-1 -1.224647e-16 1.224647e-16 -1 995.4007 -48.4335)" class="st18" width="35.1" height="35.1"/>
									<rect x="445.1" y="-41.7" class="st19" width="35.1" height="35.1"/>
									
										<rect x="410.1" y="-41.7" transform="matrix(-1 -1.224647e-16 1.224647e-16 -1 855.1711 -48.4335)" class="st20" width="35.1" height="35.1"/>
									<rect x="375" y="-41.7" class="st21" width="35.1" height="35.1"/>
								</g>
								<g>
									
										<rect x="760.6" y="-6.7" transform="matrix(-1 -1.224647e-16 1.224647e-16 -1 1556.3193 21.6813)" class="st3" width="35.1" height="35.1"/>
									<rect x="725.6" y="-6.7" class="st4" width="35.1" height="35.1"/>
									
										<rect x="690.5" y="-6.7" transform="matrix(-1 -1.224647e-16 1.224647e-16 -1 1416.0895 21.6813)" class="st5" width="35.1" height="35.1"/>
									<rect x="655.5" y="-6.7" class="st6" width="35.1" height="35.1"/>
									<rect x="515.2" y="-6.7" class="st7" width="35.1" height="35.1"/>
									
										<rect x="550.3" y="-6.7" transform="matrix(-1 -1.224647e-16 1.224647e-16 -1 1135.6302 21.6813)" class="st8" width="35.1" height="35.1"/>
									<rect x="585.3" y="-6.7" class="st9" width="35.1" height="35.1"/>
									
										<rect x="620.4" y="-6.7" transform="matrix(-1 -1.224647e-16 1.224647e-16 -1 1275.8599 21.6813)" class="st10" width="35.1" height="35.1"/>
									
										<rect x="480.2" y="-6.7" transform="matrix(-1 -1.224647e-16 1.224647e-16 -1 995.4007 21.6813)" class="st6" width="35.1" height="35.1"/>
									<rect x="445.1" y="-6.7" class="st11" width="35.1" height="35.1"/>
									
										<rect x="410.1" y="-6.7" transform="matrix(-1 -1.224647e-16 1.224647e-16 -1 855.1711 21.6813)" class="st7" width="35.1" height="35.1"/>
									<rect x="375" y="-6.7" class="st8" width="35.1" height="35.1"/>
									<rect x="-45.7" y="-6.7" class="st12" width="35.1" height="35.1"/>
									
										<rect x="-10.6" y="-6.7" transform="matrix(-1 -1.224647e-16 1.224647e-16 -1 13.7936 21.6813)" class="st13" width="35.1" height="35.1"/>
									<rect x="24.4" y="-6.7" class="st14" width="35.1" height="35.1"/>
									
										<rect x="59.5" y="-6.7" transform="matrix(-1 -1.224647e-16 1.224647e-16 -1 154.0232 21.6813)" class="st15" width="35.1" height="35.1"/>
									
										<rect x="199.7" y="-6.7" transform="matrix(-1 -1.224647e-16 1.224647e-16 -1 434.4824 21.6813)" class="st16" width="35.1" height="35.1"/>
									<rect x="164.7" y="-6.7" class="st11" width="35.1" height="35.1"/>
									
										<rect x="129.6" y="-6.7" transform="matrix(-1 -1.224647e-16 1.224647e-16 -1 294.2528 21.6813)" class="st17" width="35.1" height="35.1"/>
									<rect x="94.5" y="-6.7" class="st9" width="35.1" height="35.1"/>
									<rect x="234.8" y="-6.7" class="st18" width="35.1" height="35.1"/>
									
										<rect x="269.8" y="-6.7" transform="matrix(-1 -1.224647e-16 1.224647e-16 -1 574.712 21.6813)" class="st19" width="35.1" height="35.1"/>
									<rect x="304.9" y="-6.7" class="st20" width="35.1" height="35.1"/>
									
										<rect x="339.9" y="-6.7" transform="matrix(-1 -1.224647e-16 1.224647e-16 -1 714.9415 21.6813)" class="st21" width="35.1" height="35.1"/>
								</g>
								<g>
									<rect x="-45.7" y="63.4" class="st3" width="35.1" height="35.1"/>
									
										<rect x="-10.6" y="63.4" transform="matrix(-1 -1.224647e-16 1.224647e-16 -1 13.7936 161.9109)" class="st4" width="35.1" height="35.1"/>
									<rect x="24.4" y="63.4" class="st5" width="35.1" height="35.1"/>
									
										<rect x="59.5" y="63.4" transform="matrix(-1 -1.224647e-16 1.224647e-16 -1 154.0232 161.9109)" class="st6" width="35.1" height="35.1"/>
									
										<rect x="199.7" y="63.4" transform="matrix(-1 -1.224647e-16 1.224647e-16 -1 434.4824 161.9109)" class="st7" width="35.1" height="35.1"/>
									<rect x="164.7" y="63.4" class="st8" width="35.1" height="35.1"/>
									
										<rect x="129.6" y="63.4" transform="matrix(-1 -1.224647e-16 1.224647e-16 -1 294.2528 161.9109)" class="st9" width="35.1" height="35.1"/>
									<rect x="94.5" y="63.4" class="st10" width="35.1" height="35.1"/>
									<rect x="234.8" y="63.4" class="st6" width="35.1" height="35.1"/>
									
										<rect x="269.8" y="63.4" transform="matrix(-1 -1.224647e-16 1.224647e-16 -1 574.712 161.9109)" class="st11" width="35.1" height="35.1"/>
									<rect x="304.9" y="63.4" class="st7" width="35.1" height="35.1"/>
									
										<rect x="339.9" y="63.4" transform="matrix(-1 -1.224647e-16 1.224647e-16 -1 714.9415 161.9109)" class="st8" width="35.1" height="35.1"/>
									
										<rect x="760.6" y="63.4" transform="matrix(-1 -1.224647e-16 1.224647e-16 -1 1556.3193 161.9109)" class="st12" width="35.1" height="35.1"/>
									<rect x="725.6" y="63.4" class="st13" width="35.1" height="35.1"/>
									
										<rect x="690.5" y="63.4" transform="matrix(-1 -1.224647e-16 1.224647e-16 -1 1416.0895 161.9109)" class="st14" width="35.1" height="35.1"/>
									<rect x="655.5" y="63.4" class="st15" width="35.1" height="35.1"/>
									<rect x="515.2" y="63.4" class="st16" width="35.1" height="35.1"/>
									
										<rect x="550.3" y="63.4" transform="matrix(-1 -1.224647e-16 1.224647e-16 -1 1135.6302 161.9109)" class="st11" width="35.1" height="35.1"/>
									<rect x="585.3" y="63.4" class="st17" width="35.1" height="35.1"/>
									
										<rect x="620.4" y="63.4" transform="matrix(-1 -1.224647e-16 1.224647e-16 -1 1275.8599 161.9109)" class="st9" width="35.1" height="35.1"/>
									
										<rect x="480.2" y="63.4" transform="matrix(-1 -1.224647e-16 1.224647e-16 -1 995.4007 161.9109)" class="st18" width="35.1" height="35.1"/>
									<rect x="445.1" y="63.4" class="st19" width="35.1" height="35.1"/>
									
										<rect x="410.1" y="63.4" transform="matrix(-1 -1.224647e-16 1.224647e-16 -1 855.1711 161.9109)" class="st20" width="35.1" height="35.1"/>
									<rect x="375" y="63.4" class="st21" width="35.1" height="35.1"/>
								</g>
								<g>
									<rect x="-45.7" y="28.4" class="st22" width="35.1" height="35.1"/>
									
										<rect x="-10.6" y="28.4" transform="matrix(-1 -1.224647e-16 1.224647e-16 -1 13.7936 91.7961)" class="st4" width="35.1" height="35.1"/>
									<rect x="24.4" y="28.4" class="st23" width="35.1" height="35.1"/>
									
										<rect x="59.5" y="28.4" transform="matrix(-1 -1.224647e-16 1.224647e-16 -1 154.0232 91.7961)" class="st6" width="35.1" height="35.1"/>
									
										<rect x="199.7" y="28.4" transform="matrix(-1 -1.224647e-16 1.224647e-16 -1 434.4824 91.7961)" class="st7" width="35.1" height="35.1"/>
									<rect x="164.7" y="28.4" class="st24" width="35.1" height="35.1"/>
									
										<rect x="129.6" y="28.4" transform="matrix(-1 -1.224647e-16 1.224647e-16 -1 294.2528 91.7961)" class="st9" width="35.1" height="35.1"/>
									<rect x="94.5" y="28.4" class="st25" width="35.1" height="35.1"/>
									<rect x="234.8" y="28.4" class="st18" width="35.1" height="35.1"/>
									
										<rect x="269.8" y="28.4" transform="matrix(-1 -1.224647e-16 1.224647e-16 -1 574.712 91.7961)" class="st11" width="35.1" height="35.1"/>
									<rect x="304.9" y="28.4" class="st7" width="35.1" height="35.1"/>
									
										<rect x="339.9" y="28.4" transform="matrix(-1 -1.224647e-16 1.224647e-16 -1 714.9415 91.7961)" class="st8" width="35.1" height="35.1"/>
									
										<rect x="760.6" y="28.4" transform="matrix(-1 -1.224647e-16 1.224647e-16 -1 1556.3193 91.7961)" class="st26" width="35.1" height="35.1"/>
									<rect x="725.6" y="28.4" class="st27" width="35.1" height="35.1"/>
									
										<rect x="690.5" y="28.4" transform="matrix(-1 -1.224647e-16 1.224647e-16 -1 1416.0895 91.7961)" class="st14" width="35.1" height="35.1"/>
									<rect x="655.5" y="28.4" class="st28" width="35.1" height="35.1"/>
									<rect x="515.2" y="28.4" class="st29" width="35.1" height="35.1"/>
									
										<rect x="550.3" y="28.4" transform="matrix(-1 -1.224647e-16 1.224647e-16 -1 1135.6302 91.7961)" class="st11" width="35.1" height="35.1"/>
									<rect x="585.3" y="28.4" class="st30" width="35.1" height="35.1"/>
									
										<rect x="620.4" y="28.4" transform="matrix(-1 -1.224647e-16 1.224647e-16 -1 1275.8599 91.7961)" class="st31" width="35.1" height="35.1"/>
									
										<rect x="480.2" y="28.4" transform="matrix(-1 -1.224647e-16 1.224647e-16 -1 995.4007 91.7961)" class="st16" width="35.1" height="35.1"/>
									<rect x="445.1" y="28.4" class="st16" width="35.1" height="35.1"/>
									
										<rect x="410.1" y="28.4" transform="matrix(-1 -1.224647e-16 1.224647e-16 -1 855.1711 91.7961)" class="st20" width="35.1" height="35.1"/>
									<rect x="375" y="28.4" class="st21" width="35.1" height="35.1"/>
								</g>
							</g>
							<g>
								<g>
									
										<rect x="760.6" y="203.7" transform="matrix(-1 -1.224647e-16 1.224647e-16 -1 1556.3193 442.37)" class="st3" width="35.1" height="35.1"/>
									<rect x="725.6" y="203.7" class="st4" width="35.1" height="35.1"/>
									
										<rect x="690.5" y="203.7" transform="matrix(-1 -1.224647e-16 1.224647e-16 -1 1416.0895 442.37)" class="st5" width="35.1" height="35.1"/>
									<rect x="655.5" y="203.7" class="st6" width="35.1" height="35.1"/>
									<rect x="515.2" y="203.7" class="st7" width="35.1" height="35.1"/>
									
										<rect x="550.3" y="203.7" transform="matrix(-1 -1.224647e-16 1.224647e-16 -1 1135.6302 442.37)" class="st8" width="35.1" height="35.1"/>
									<rect x="585.3" y="203.7" class="st9" width="35.1" height="35.1"/>
									
										<rect x="620.4" y="203.7" transform="matrix(-1 -1.224647e-16 1.224647e-16 -1 1275.8599 442.37)" class="st10" width="35.1" height="35.1"/>
									
										<rect x="480.2" y="203.7" transform="matrix(-1 -1.224647e-16 1.224647e-16 -1 995.4007 442.37)" class="st6" width="35.1" height="35.1"/>
									<rect x="445.1" y="203.7" class="st11" width="35.1" height="35.1"/>
									
										<rect x="410.1" y="203.7" transform="matrix(-1 -1.224647e-16 1.224647e-16 -1 855.1711 442.37)" class="st7" width="35.1" height="35.1"/>
									<rect x="375" y="203.7" class="st8" width="35.1" height="35.1"/>
									<rect x="-45.7" y="203.7" class="st12" width="35.1" height="35.1"/>
									
										<rect x="-10.6" y="203.7" transform="matrix(-1 -1.224647e-16 1.224647e-16 -1 13.7936 442.37)" class="st13" width="35.1" height="35.1"/>
									<rect x="24.4" y="203.7" class="st14" width="35.1" height="35.1"/>
									
										<rect x="59.5" y="203.7" transform="matrix(-1 -1.224647e-16 1.224647e-16 -1 154.0232 442.37)" class="st15" width="35.1" height="35.1"/>
									
										<rect x="199.7" y="203.7" transform="matrix(-1 -1.224647e-16 1.224647e-16 -1 434.4824 442.37)" class="st16" width="35.1" height="35.1"/>
									<rect x="164.7" y="203.7" class="st11" width="35.1" height="35.1"/>
									
										<rect x="129.6" y="203.7" transform="matrix(-1 -1.224647e-16 1.224647e-16 -1 294.2528 442.37)" class="st17" width="35.1" height="35.1"/>
									<rect x="94.5" y="203.7" class="st9" width="35.1" height="35.1"/>
									<rect x="234.8" y="203.7" class="st18" width="35.1" height="35.1"/>
									
										<rect x="269.8" y="203.7" transform="matrix(-1 -1.224647e-16 1.224647e-16 -1 574.712 442.37)" class="st19" width="35.1" height="35.1"/>
									<rect x="304.9" y="203.7" class="st20" width="35.1" height="35.1"/>
									
										<rect x="339.9" y="203.7" transform="matrix(-1 -1.224647e-16 1.224647e-16 -1 714.9415 442.37)" class="st21" width="35.1" height="35.1"/>
								</g>
								<g>
									<rect x="-45.7" y="168.6" class="st3" width="35.1" height="35.1"/>
									
										<rect x="-10.6" y="168.6" transform="matrix(-1 -1.224647e-16 1.224647e-16 -1 13.7936 372.2552)" class="st4" width="35.1" height="35.1"/>
									<rect x="24.4" y="168.6" class="st5" width="35.1" height="35.1"/>
									
										<rect x="59.5" y="168.6" transform="matrix(-1 -1.224647e-16 1.224647e-16 -1 154.0232 372.2552)" class="st6" width="35.1" height="35.1"/>
									
										<rect x="199.7" y="168.6" transform="matrix(-1 -1.224647e-16 1.224647e-16 -1 434.4824 372.2552)" class="st7" width="35.1" height="35.1"/>
									<rect x="164.7" y="168.6" class="st8" width="35.1" height="35.1"/>
									
										<rect x="129.6" y="168.6" transform="matrix(-1 -1.224647e-16 1.224647e-16 -1 294.2528 372.2552)" class="st9" width="35.1" height="35.1"/>
									<rect x="94.5" y="168.6" class="st10" width="35.1" height="35.1"/>
									<rect x="234.8" y="168.6" class="st6" width="35.1" height="35.1"/>
									
										<rect x="269.8" y="168.6" transform="matrix(-1 -1.224647e-16 1.224647e-16 -1 574.712 372.2552)" class="st11" width="35.1" height="35.1"/>
									<rect x="304.9" y="168.6" class="st7" width="35.1" height="35.1"/>
									
										<rect x="339.9" y="168.6" transform="matrix(-1 -1.224647e-16 1.224647e-16 -1 714.9415 372.2552)" class="st8" width="35.1" height="35.1"/>
									
										<rect x="760.6" y="168.6" transform="matrix(-1 -1.224647e-16 1.224647e-16 -1 1556.3193 372.2552)" class="st12" width="35.1" height="35.1"/>
									<rect x="725.6" y="168.6" class="st13" width="35.1" height="35.1"/>
									
										<rect x="690.5" y="168.6" transform="matrix(-1 -1.224647e-16 1.224647e-16 -1 1416.0895 372.2552)" class="st14" width="35.1" height="35.1"/>
									<rect x="655.5" y="168.6" class="st15" width="35.1" height="35.1"/>
									<rect x="515.2" y="168.6" class="st16" width="35.1" height="35.1"/>
									
										<rect x="550.3" y="168.6" transform="matrix(-1 -1.224647e-16 1.224647e-16 -1 1135.6302 372.2552)" class="st11" width="35.1" height="35.1"/>
									<rect x="585.3" y="168.6" class="st17" width="35.1" height="35.1"/>
									
										<rect x="620.4" y="168.6" transform="matrix(-1 -1.224647e-16 1.224647e-16 -1 1275.8599 372.2552)" class="st9" width="35.1" height="35.1"/>
									
										<rect x="480.2" y="168.6" transform="matrix(-1 -1.224647e-16 1.224647e-16 -1 995.4007 372.2552)" class="st18" width="35.1" height="35.1"/>
									<rect x="445.1" y="168.6" class="st19" width="35.1" height="35.1"/>
									
										<rect x="410.1" y="168.6" transform="matrix(-1 -1.224647e-16 1.224647e-16 -1 855.1711 372.2552)" class="st20" width="35.1" height="35.1"/>
									<rect x="375" y="168.6" class="st21" width="35.1" height="35.1"/>
								</g>
								<g>
									
										<rect x="760.6" y="98.5" transform="matrix(-1 -1.224647e-16 1.224647e-16 -1 1556.3193 232.0257)" class="st3" width="35.1" height="35.1"/>
									<rect x="725.6" y="98.5" class="st4" width="35.1" height="35.1"/>
									
										<rect x="690.5" y="98.5" transform="matrix(-1 -1.224647e-16 1.224647e-16 -1 1416.0895 232.0257)" class="st5" width="35.1" height="35.1"/>
									<rect x="655.5" y="98.5" class="st6" width="35.1" height="35.1"/>
									<rect x="515.2" y="98.5" class="st7" width="35.1" height="35.1"/>
									
										<rect x="550.3" y="98.5" transform="matrix(-1 -1.224647e-16 1.224647e-16 -1 1135.6302 232.0257)" class="st8" width="35.1" height="35.1"/>
									<rect x="585.3" y="98.5" class="st9" width="35.1" height="35.1"/>
									
										<rect x="620.4" y="98.5" transform="matrix(-1 -1.224647e-16 1.224647e-16 -1 1275.8599 232.0257)" class="st10" width="35.1" height="35.1"/>
									
										<rect x="480.2" y="98.5" transform="matrix(-1 -1.224647e-16 1.224647e-16 -1 995.4007 232.0257)" class="st6" width="35.1" height="35.1"/>
									<rect x="445.1" y="98.5" class="st11" width="35.1" height="35.1"/>
									
										<rect x="410.1" y="98.5" transform="matrix(-1 -1.224647e-16 1.224647e-16 -1 855.1711 232.0257)" class="st7" width="35.1" height="35.1"/>
									<rect x="375" y="98.5" class="st8" width="35.1" height="35.1"/>
									<rect x="-45.7" y="98.5" class="st12" width="35.1" height="35.1"/>
									
										<rect x="-10.6" y="98.5" transform="matrix(-1 -1.224647e-16 1.224647e-16 -1 13.7936 232.0257)" class="st13" width="35.1" height="35.1"/>
									<rect x="24.4" y="98.5" class="st14" width="35.1" height="35.1"/>
									
										<rect x="59.5" y="98.5" transform="matrix(-1 -1.224647e-16 1.224647e-16 -1 154.0232 232.0257)" class="st15" width="35.1" height="35.1"/>
									
										<rect x="199.7" y="98.5" transform="matrix(-1 -1.224647e-16 1.224647e-16 -1 434.4824 232.0257)" class="st16" width="35.1" height="35.1"/>
									<rect x="164.7" y="98.5" class="st11" width="35.1" height="35.1"/>
									
										<rect x="129.6" y="98.5" transform="matrix(-1 -1.224647e-16 1.224647e-16 -1 294.2528 232.0257)" class="st17" width="35.1" height="35.1"/>
									<rect x="94.5" y="98.5" class="st9" width="35.1" height="35.1"/>
									<rect x="234.8" y="98.5" class="st18" width="35.1" height="35.1"/>
									
										<rect x="269.8" y="98.5" transform="matrix(-1 -1.224647e-16 1.224647e-16 -1 574.712 232.0257)" class="st19" width="35.1" height="35.1"/>
									<rect x="304.9" y="98.5" class="st20" width="35.1" height="35.1"/>
									
										<rect x="339.9" y="98.5" transform="matrix(-1 -1.224647e-16 1.224647e-16 -1 714.9415 232.0257)" class="st21" width="35.1" height="35.1"/>
								</g>
								<g>
									
										<rect x="760.6" y="133.5" transform="matrix(-1 -1.224647e-16 1.224647e-16 -1 1556.3193 302.1404)" class="st22" width="35.1" height="35.1"/>
									<rect x="725.6" y="133.5" class="st4" width="35.1" height="35.1"/>
									
										<rect x="690.5" y="133.5" transform="matrix(-1 -1.224647e-16 1.224647e-16 -1 1416.0895 302.1404)" class="st23" width="35.1" height="35.1"/>
									<rect x="655.5" y="133.5" class="st6" width="35.1" height="35.1"/>
									<rect x="515.2" y="133.5" class="st7" width="35.1" height="35.1"/>
									
										<rect x="550.3" y="133.5" transform="matrix(-1 -1.224647e-16 1.224647e-16 -1 1135.6302 302.1404)" class="st24" width="35.1" height="35.1"/>
									<rect x="585.3" y="133.5" class="st9" width="35.1" height="35.1"/>
									
										<rect x="620.4" y="133.5" transform="matrix(-1 -1.224647e-16 1.224647e-16 -1 1275.8599 302.1404)" class="st25" width="35.1" height="35.1"/>
									
										<rect x="480.2" y="133.5" transform="matrix(-1 -1.224647e-16 1.224647e-16 -1 995.4007 302.1404)" class="st18" width="35.1" height="35.1"/>
									<rect x="445.1" y="133.5" class="st11" width="35.1" height="35.1"/>
									
										<rect x="410.1" y="133.5" transform="matrix(-1 -1.224647e-16 1.224647e-16 -1 855.1711 302.1404)" class="st7" width="35.1" height="35.1"/>
									<rect x="375" y="133.5" class="st8" width="35.1" height="35.1"/>
									<rect x="-45.7" y="133.5" class="st26" width="35.1" height="35.1"/>
									
										<rect x="-10.6" y="133.5" transform="matrix(-1 -1.224647e-16 1.224647e-16 -1 13.7936 302.1404)" class="st27" width="35.1" height="35.1"/>
									<rect x="24.4" y="133.5" class="st14" width="35.1" height="35.1"/>
									
										<rect x="59.5" y="133.5" transform="matrix(-1 -1.224647e-16 1.224647e-16 -1 154.0232 302.1404)" class="st28" width="35.1" height="35.1"/>
									
										<rect x="199.7" y="133.5" transform="matrix(-1 -1.224647e-16 1.224647e-16 -1 434.4824 302.1404)" class="st29" width="35.1" height="35.1"/>
									<rect x="164.7" y="133.5" class="st11" width="35.1" height="35.1"/>
									
										<rect x="129.6" y="133.5" transform="matrix(-1 -1.224647e-16 1.224647e-16 -1 294.2528 302.1404)" class="st30" width="35.1" height="35.1"/>
									<rect x="94.5" y="133.5" class="st31" width="35.1" height="35.1"/>
									<rect x="234.8" y="133.5" class="st16" width="35.1" height="35.1"/>
									
										<rect x="269.8" y="133.5" transform="matrix(-1 -1.224647e-16 1.224647e-16 -1 574.712 302.1404)" class="st16" width="35.1" height="35.1"/>
									<rect x="304.9" y="133.5" class="st20" width="35.1" height="35.1"/>
									
										<rect x="339.9" y="133.5" transform="matrix(-1 -1.224647e-16 1.224647e-16 -1 714.9415 302.1404)" class="st21" width="35.1" height="35.1"/>
								</g>
							</g>
						</g>
						<g>
							<g>
								<g>
									<rect x="-45.7" y="238.7" class="st3" width="35.1" height="35.1"/>
									
										<rect x="-10.6" y="238.7" transform="matrix(-1 -1.224647e-16 1.224647e-16 -1 13.7936 512.4848)" class="st4" width="35.1" height="35.1"/>
									<rect x="24.4" y="238.7" class="st5" width="35.1" height="35.1"/>
									
										<rect x="59.5" y="238.7" transform="matrix(-1 -1.224647e-16 1.224647e-16 -1 154.0232 512.4848)" class="st6" width="35.1" height="35.1"/>
									
										<rect x="199.7" y="238.7" transform="matrix(-1 -1.224647e-16 1.224647e-16 -1 434.4824 512.4848)" class="st7" width="35.1" height="35.1"/>
									<rect x="164.7" y="238.7" class="st8" width="35.1" height="35.1"/>
									
										<rect x="129.6" y="238.7" transform="matrix(-1 -1.224647e-16 1.224647e-16 -1 294.2528 512.4848)" class="st9" width="35.1" height="35.1"/>
									<rect x="94.5" y="238.7" class="st10" width="35.1" height="35.1"/>
									<rect x="234.8" y="238.7" class="st6" width="35.1" height="35.1"/>
									
										<rect x="269.8" y="238.7" transform="matrix(-1 -1.224647e-16 1.224647e-16 -1 574.712 512.4848)" class="st11" width="35.1" height="35.1"/>
									<rect x="304.9" y="238.7" class="st7" width="35.1" height="35.1"/>
									
										<rect x="339.9" y="238.7" transform="matrix(-1 -1.224647e-16 1.224647e-16 -1 714.9415 512.4848)" class="st8" width="35.1" height="35.1"/>
									
										<rect x="760.6" y="238.7" transform="matrix(-1 -1.224647e-16 1.224647e-16 -1 1556.3193 512.4848)" class="st12" width="35.1" height="35.1"/>
									<rect x="725.6" y="238.7" class="st13" width="35.1" height="35.1"/>
									
										<rect x="690.5" y="238.7" transform="matrix(-1 -1.224647e-16 1.224647e-16 -1 1416.0895 512.4848)" class="st14" width="35.1" height="35.1"/>
									<rect x="655.5" y="238.7" class="st15" width="35.1" height="35.1"/>
									<rect x="515.2" y="238.7" class="st16" width="35.1" height="35.1"/>
									
										<rect x="550.3" y="238.7" transform="matrix(-1 -1.224647e-16 1.224647e-16 -1 1135.6302 512.4848)" class="st11" width="35.1" height="35.1"/>
									<rect x="585.3" y="238.7" class="st17" width="35.1" height="35.1"/>
									
										<rect x="620.4" y="238.7" transform="matrix(-1 -1.224647e-16 1.224647e-16 -1 1275.8599 512.4848)" class="st9" width="35.1" height="35.1"/>
									
										<rect x="480.2" y="238.7" transform="matrix(-1 -1.224647e-16 1.224647e-16 -1 995.4007 512.4848)" class="st18" width="35.1" height="35.1"/>
									<rect x="445.1" y="238.7" class="st19" width="35.1" height="35.1"/>
									
										<rect x="410.1" y="238.7" transform="matrix(-1 -1.224647e-16 1.224647e-16 -1 855.1711 512.4848)" class="st20" width="35.1" height="35.1"/>
									<rect x="375" y="238.7" class="st21" width="35.1" height="35.1"/>
								</g>
								<g>
									
										<rect x="760.6" y="273.8" transform="matrix(-1 -1.224647e-16 1.224647e-16 -1 1556.3193 582.5996)" class="st3" width="35.1" height="35.1"/>
									<rect x="725.6" y="273.8" class="st4" width="35.1" height="35.1"/>
									
										<rect x="690.5" y="273.8" transform="matrix(-1 -1.224647e-16 1.224647e-16 -1 1416.0895 582.5996)" class="st5" width="35.1" height="35.1"/>
									<rect x="655.5" y="273.8" class="st6" width="35.1" height="35.1"/>
									<rect x="515.2" y="273.8" class="st7" width="35.1" height="35.1"/>
									
										<rect x="550.3" y="273.8" transform="matrix(-1 -1.224647e-16 1.224647e-16 -1 1135.6302 582.5996)" class="st8" width="35.1" height="35.1"/>
									<rect x="585.3" y="273.8" class="st9" width="35.1" height="35.1"/>
									
										<rect x="620.4" y="273.8" transform="matrix(-1 -1.224647e-16 1.224647e-16 -1 1275.8599 582.5996)" class="st10" width="35.1" height="35.1"/>
									
										<rect x="480.2" y="273.8" transform="matrix(-1 -1.224647e-16 1.224647e-16 -1 995.4007 582.5996)" class="st6" width="35.1" height="35.1"/>
									<rect x="445.1" y="273.8" class="st11" width="35.1" height="35.1"/>
									
										<rect x="410.1" y="273.8" transform="matrix(-1 -1.224647e-16 1.224647e-16 -1 855.1711 582.5996)" class="st7" width="35.1" height="35.1"/>
									<rect x="375" y="273.8" class="st8" width="35.1" height="35.1"/>
									<rect x="-45.7" y="273.8" class="st12" width="35.1" height="35.1"/>
									
										<rect x="-10.6" y="273.8" transform="matrix(-1 -1.224647e-16 1.224647e-16 -1 13.7936 582.5996)" class="st13" width="35.1" height="35.1"/>
									<rect x="24.4" y="273.8" class="st14" width="35.1" height="35.1"/>
									
										<rect x="59.5" y="273.8" transform="matrix(-1 -1.224647e-16 1.224647e-16 -1 154.0232 582.5996)" class="st15" width="35.1" height="35.1"/>
									
										<rect x="199.7" y="273.8" transform="matrix(-1 -1.224647e-16 1.224647e-16 -1 434.4824 582.5996)" class="st16" width="35.1" height="35.1"/>
									<rect x="164.7" y="273.8" class="st11" width="35.1" height="35.1"/>
									
										<rect x="129.6" y="273.8" transform="matrix(-1 -1.224647e-16 1.224647e-16 -1 294.2528 582.5996)" class="st17" width="35.1" height="35.1"/>
									<rect x="94.5" y="273.8" class="st9" width="35.1" height="35.1"/>
									<rect x="234.8" y="273.8" class="st18" width="35.1" height="35.1"/>
									
										<rect x="269.8" y="273.8" transform="matrix(-1 -1.224647e-16 1.224647e-16 -1 574.712 582.5996)" class="st19" width="35.1" height="35.1"/>
									<rect x="304.9" y="273.8" class="st20" width="35.1" height="35.1"/>
									
										<rect x="339.9" y="273.8" transform="matrix(-1 -1.224647e-16 1.224647e-16 -1 714.9415 582.5996)" class="st21" width="35.1" height="35.1"/>
								</g>
								<g>
									<rect x="-45.7" y="343.9" class="st3" width="35.1" height="35.1"/>
									
										<rect x="-10.6" y="343.9" transform="matrix(-1 -1.224647e-16 1.224647e-16 -1 13.7936 722.8292)" class="st4" width="35.1" height="35.1"/>
									<rect x="24.4" y="343.9" class="st5" width="35.1" height="35.1"/>
									
										<rect x="59.5" y="343.9" transform="matrix(-1 -1.224647e-16 1.224647e-16 -1 154.0232 722.8292)" class="st6" width="35.1" height="35.1"/>
									
										<rect x="199.7" y="343.9" transform="matrix(-1 -1.224647e-16 1.224647e-16 -1 434.4824 722.8292)" class="st7" width="35.1" height="35.1"/>
									<rect x="164.7" y="343.9" class="st8" width="35.1" height="35.1"/>
									
										<rect x="129.6" y="343.9" transform="matrix(-1 -1.224647e-16 1.224647e-16 -1 294.2528 722.8292)" class="st9" width="35.1" height="35.1"/>
									<rect x="94.5" y="343.9" class="st10" width="35.1" height="35.1"/>
									<rect x="234.8" y="343.9" class="st6" width="35.1" height="35.1"/>
									
										<rect x="269.8" y="343.9" transform="matrix(-1 -1.224647e-16 1.224647e-16 -1 574.712 722.8292)" class="st11" width="35.1" height="35.1"/>
									<rect x="304.9" y="343.9" class="st7" width="35.1" height="35.1"/>
									
										<rect x="339.9" y="343.9" transform="matrix(-1 -1.224647e-16 1.224647e-16 -1 714.9415 722.8292)" class="st8" width="35.1" height="35.1"/>
									
										<rect x="760.6" y="343.9" transform="matrix(-1 -1.224647e-16 1.224647e-16 -1 1556.3193 722.8292)" class="st12" width="35.1" height="35.1"/>
									<rect x="725.6" y="343.9" class="st13" width="35.1" height="35.1"/>
									
										<rect x="690.5" y="343.9" transform="matrix(-1 -1.224647e-16 1.224647e-16 -1 1416.0895 722.8292)" class="st14" width="35.1" height="35.1"/>
									<rect x="655.5" y="343.9" class="st15" width="35.1" height="35.1"/>
									<rect x="515.2" y="343.9" class="st16" width="35.1" height="35.1"/>
									
										<rect x="550.3" y="343.9" transform="matrix(-1 -1.224647e-16 1.224647e-16 -1 1135.6302 722.8292)" class="st11" width="35.1" height="35.1"/>
									<rect x="585.3" y="343.9" class="st17" width="35.1" height="35.1"/>
									
										<rect x="620.4" y="343.9" transform="matrix(-1 -1.224647e-16 1.224647e-16 -1 1275.8599 722.8292)" class="st9" width="35.1" height="35.1"/>
									
										<rect x="480.2" y="343.9" transform="matrix(-1 -1.224647e-16 1.224647e-16 -1 995.4007 722.8292)" class="st18" width="35.1" height="35.1"/>
									<rect x="445.1" y="343.9" class="st19" width="35.1" height="35.1"/>
									
										<rect x="410.1" y="343.9" transform="matrix(-1 -1.224647e-16 1.224647e-16 -1 855.1711 722.8292)" class="st20" width="35.1" height="35.1"/>
									<rect x="375" y="343.9" class="st21" width="35.1" height="35.1"/>
								</g>
								<g>
									<rect x="-45.7" y="308.8" class="st22" width="35.1" height="35.1"/>
									
										<rect x="-10.6" y="308.8" transform="matrix(-1 -1.224647e-16 1.224647e-16 -1 13.7936 652.7144)" class="st4" width="35.1" height="35.1"/>
									<rect x="24.4" y="308.8" class="st23" width="35.1" height="35.1"/>
									
										<rect x="59.5" y="308.8" transform="matrix(-1 -1.224647e-16 1.224647e-16 -1 154.0232 652.7144)" class="st6" width="35.1" height="35.1"/>
									
										<rect x="199.7" y="308.8" transform="matrix(-1 -1.224647e-16 1.224647e-16 -1 434.4824 652.7144)" class="st7" width="35.1" height="35.1"/>
									<rect x="164.7" y="308.8" class="st24" width="35.1" height="35.1"/>
									
										<rect x="129.6" y="308.8" transform="matrix(-1 -1.224647e-16 1.224647e-16 -1 294.2528 652.7144)" class="st9" width="35.1" height="35.1"/>
									<rect x="94.5" y="308.8" class="st25" width="35.1" height="35.1"/>
									<rect x="234.8" y="308.8" class="st18" width="35.1" height="35.1"/>
									
										<rect x="269.8" y="308.8" transform="matrix(-1 -1.224647e-16 1.224647e-16 -1 574.712 652.7144)" class="st11" width="35.1" height="35.1"/>
									<rect x="304.9" y="308.8" class="st7" width="35.1" height="35.1"/>
									
										<rect x="339.9" y="308.8" transform="matrix(-1 -1.224647e-16 1.224647e-16 -1 714.9415 652.7144)" class="st8" width="35.1" height="35.1"/>
									
										<rect x="760.6" y="308.8" transform="matrix(-1 -1.224647e-16 1.224647e-16 -1 1556.3193 652.7144)" class="st26" width="35.1" height="35.1"/>
									<rect x="725.6" y="308.8" class="st27" width="35.1" height="35.1"/>
									
										<rect x="690.5" y="308.8" transform="matrix(-1 -1.224647e-16 1.224647e-16 -1 1416.0895 652.7144)" class="st14" width="35.1" height="35.1"/>
									<rect x="655.5" y="308.8" class="st28" width="35.1" height="35.1"/>
									<rect x="515.2" y="308.8" class="st29" width="35.1" height="35.1"/>
									
										<rect x="550.3" y="308.8" transform="matrix(-1 -1.224647e-16 1.224647e-16 -1 1135.6302 652.7144)" class="st11" width="35.1" height="35.1"/>
									<rect x="585.3" y="308.8" class="st30" width="35.1" height="35.1"/>
									
										<rect x="620.4" y="308.8" transform="matrix(-1 -1.224647e-16 1.224647e-16 -1 1275.8599 652.7144)" class="st31" width="35.1" height="35.1"/>
									
										<rect x="480.2" y="308.8" transform="matrix(-1 -1.224647e-16 1.224647e-16 -1 995.4007 652.7144)" class="st16" width="35.1" height="35.1"/>
									<rect x="445.1" y="308.8" class="st16" width="35.1" height="35.1"/>
									
										<rect x="410.1" y="308.8" transform="matrix(-1 -1.224647e-16 1.224647e-16 -1 855.1711 652.7144)" class="st20" width="35.1" height="35.1"/>
									<rect x="375" y="308.8" class="st21" width="35.1" height="35.1"/>
								</g>
							</g>
							<g>
								<g>
									
										<rect x="760.6" y="484.1" transform="matrix(-1 -1.224647e-16 1.224647e-16 -1 1556.3193 1003.289)" class="st3" width="35.1" height="35.1"/>
									<rect x="725.6" y="484.1" class="st4" width="35.1" height="35.1"/>
									
										<rect x="690.5" y="484.1" transform="matrix(-1 -1.224647e-16 1.224647e-16 -1 1416.0895 1003.289)" class="st5" width="35.1" height="35.1"/>
									<rect x="655.5" y="484.1" class="st6" width="35.1" height="35.1"/>
									<rect x="515.2" y="484.1" class="st7" width="35.1" height="35.1"/>
									
										<rect x="550.3" y="484.1" transform="matrix(-1 -1.224647e-16 1.224647e-16 -1 1135.6302 1003.289)" class="st8" width="35.1" height="35.1"/>
									<rect x="585.3" y="484.1" class="st9" width="35.1" height="35.1"/>
									
										<rect x="620.4" y="484.1" transform="matrix(-1 -1.224647e-16 1.224647e-16 -1 1275.8599 1003.289)" class="st10" width="35.1" height="35.1"/>
									
										<rect x="480.2" y="484.1" transform="matrix(-1 -1.224647e-16 1.224647e-16 -1 995.4007 1003.289)" class="st6" width="35.1" height="35.1"/>
									<rect x="445.1" y="484.1" class="st11" width="35.1" height="35.1"/>
									
										<rect x="410.1" y="484.1" transform="matrix(-1 -1.224647e-16 1.224647e-16 -1 855.1711 1003.289)" class="st7" width="35.1" height="35.1"/>
									<rect x="375" y="484.1" class="st8" width="35.1" height="35.1"/>
									<rect x="-45.7" y="484.1" class="st12" width="35.1" height="35.1"/>
									
										<rect x="-10.6" y="484.1" transform="matrix(-1 -1.224647e-16 1.224647e-16 -1 13.7936 1003.289)" class="st13" width="35.1" height="35.1"/>
									<rect x="24.4" y="484.1" class="st14" width="35.1" height="35.1"/>
									
										<rect x="59.5" y="484.1" transform="matrix(-1 -1.224647e-16 1.224647e-16 -1 154.0232 1003.289)" class="st15" width="35.1" height="35.1"/>
									
										<rect x="199.7" y="484.1" transform="matrix(-1 -1.224647e-16 1.224647e-16 -1 434.4824 1003.289)" class="st16" width="35.1" height="35.1"/>
									<rect x="164.7" y="484.1" class="st11" width="35.1" height="35.1"/>
									
										<rect x="129.6" y="484.1" transform="matrix(-1 -1.224647e-16 1.224647e-16 -1 294.2528 1003.289)" class="st17" width="35.1" height="35.1"/>
									<rect x="94.5" y="484.1" class="st9" width="35.1" height="35.1"/>
									<rect x="234.8" y="484.1" class="st18" width="35.1" height="35.1"/>
									
										<rect x="269.8" y="484.1" transform="matrix(-1 -1.224647e-16 1.224647e-16 -1 574.712 1003.289)" class="st19" width="35.1" height="35.1"/>
									<rect x="304.9" y="484.1" class="st20" width="35.1" height="35.1"/>
									
										<rect x="339.9" y="484.1" transform="matrix(-1 -1.224647e-16 1.224647e-16 -1 714.9415 1003.289)" class="st21" width="35.1" height="35.1"/>
								</g>
								<g>
									<rect x="-45.7" y="449.1" class="st3" width="35.1" height="35.1"/>
									
										<rect x="-10.6" y="449.1" transform="matrix(-1 -1.224647e-16 1.224647e-16 -1 13.7936 933.1739)" class="st4" width="35.1" height="35.1"/>
									<rect x="24.4" y="449.1" class="st5" width="35.1" height="35.1"/>
									
										<rect x="59.5" y="449.1" transform="matrix(-1 -1.224647e-16 1.224647e-16 -1 154.0232 933.1739)" class="st6" width="35.1" height="35.1"/>
									
										<rect x="199.7" y="449.1" transform="matrix(-1 -1.224647e-16 1.224647e-16 -1 434.4824 933.1739)" class="st7" width="35.1" height="35.1"/>
									<rect x="164.7" y="449.1" class="st8" width="35.1" height="35.1"/>
									
										<rect x="129.6" y="449.1" transform="matrix(-1 -1.224647e-16 1.224647e-16 -1 294.2528 933.1739)" class="st9" width="35.1" height="35.1"/>
									<rect x="94.5" y="449.1" class="st10" width="35.1" height="35.1"/>
									<rect x="234.8" y="449.1" class="st6" width="35.1" height="35.1"/>
									
										<rect x="269.8" y="449.1" transform="matrix(-1 -1.224647e-16 1.224647e-16 -1 574.712 933.1739)" class="st11" width="35.1" height="35.1"/>
									<rect x="304.9" y="449.1" class="st7" width="35.1" height="35.1"/>
									
										<rect x="339.9" y="449.1" transform="matrix(-1 -1.224647e-16 1.224647e-16 -1 714.9415 933.1739)" class="st8" width="35.1" height="35.1"/>
									
										<rect x="760.6" y="449.1" transform="matrix(-1 -1.224647e-16 1.224647e-16 -1 1556.3193 933.1739)" class="st12" width="35.1" height="35.1"/>
									<rect x="725.6" y="449.1" class="st13" width="35.1" height="35.1"/>
									
										<rect x="690.5" y="449.1" transform="matrix(-1 -1.224647e-16 1.224647e-16 -1 1416.0895 933.1739)" class="st14" width="35.1" height="35.1"/>
									<rect x="655.5" y="449.1" class="st15" width="35.1" height="35.1"/>
									<rect x="515.2" y="449.1" class="st16" width="35.1" height="35.1"/>
									
										<rect x="550.3" y="449.1" transform="matrix(-1 -1.224647e-16 1.224647e-16 -1 1135.6302 933.1739)" class="st11" width="35.1" height="35.1"/>
									<rect x="585.3" y="449.1" class="st17" width="35.1" height="35.1"/>
									
										<rect x="620.4" y="449.1" transform="matrix(-1 -1.224647e-16 1.224647e-16 -1 1275.8599 933.1739)" class="st9" width="35.1" height="35.1"/>
									
										<rect x="480.2" y="449.1" transform="matrix(-1 -1.224647e-16 1.224647e-16 -1 995.4007 933.1739)" class="st18" width="35.1" height="35.1"/>
									<rect x="445.1" y="449.1" class="st19" width="35.1" height="35.1"/>
									
										<rect x="410.1" y="449.1" transform="matrix(-1 -1.224647e-16 1.224647e-16 -1 855.1711 933.1739)" class="st20" width="35.1" height="35.1"/>
									<rect x="375" y="449.1" class="st21" width="35.1" height="35.1"/>
								</g>
								<g>
									
										<rect x="760.6" y="378.9" transform="matrix(-1 -1.224647e-16 1.224647e-16 -1 1556.3193 792.944)" class="st3" width="35.1" height="35.1"/>
									<rect x="725.6" y="378.9" class="st4" width="35.1" height="35.1"/>
									
										<rect x="690.5" y="378.9" transform="matrix(-1 -1.224647e-16 1.224647e-16 -1 1416.0895 792.944)" class="st5" width="35.1" height="35.1"/>
									<rect x="655.5" y="378.9" class="st6" width="35.1" height="35.1"/>
									<rect x="515.2" y="378.9" class="st7" width="35.1" height="35.1"/>
									
										<rect x="550.3" y="378.9" transform="matrix(-1 -1.224647e-16 1.224647e-16 -1 1135.6302 792.944)" class="st8" width="35.1" height="35.1"/>
									<rect x="585.3" y="378.9" class="st9" width="35.1" height="35.1"/>
									
										<rect x="620.4" y="378.9" transform="matrix(-1 -1.224647e-16 1.224647e-16 -1 1275.8599 792.944)" class="st10" width="35.1" height="35.1"/>
									
										<rect x="480.2" y="378.9" transform="matrix(-1 -1.224647e-16 1.224647e-16 -1 995.4007 792.944)" class="st6" width="35.1" height="35.1"/>
									<rect x="445.1" y="378.9" class="st11" width="35.1" height="35.1"/>
									
										<rect x="410.1" y="378.9" transform="matrix(-1 -1.224647e-16 1.224647e-16 -1 855.1711 792.944)" class="st7" width="35.1" height="35.1"/>
									<rect x="375" y="378.9" class="st8" width="35.1" height="35.1"/>
									<rect x="-45.7" y="378.9" class="st12" width="35.1" height="35.1"/>
									
										<rect x="-10.6" y="378.9" transform="matrix(-1 -1.224647e-16 1.224647e-16 -1 13.7936 792.944)" class="st13" width="35.1" height="35.1"/>
									<rect x="24.4" y="378.9" class="st14" width="35.1" height="35.1"/>
									
										<rect x="59.5" y="378.9" transform="matrix(-1 -1.224647e-16 1.224647e-16 -1 154.0232 792.944)" class="st15" width="35.1" height="35.1"/>
									
										<rect x="199.7" y="378.9" transform="matrix(-1 -1.224647e-16 1.224647e-16 -1 434.4824 792.944)" class="st16" width="35.1" height="35.1"/>
									<rect x="164.7" y="378.9" class="st11" width="35.1" height="35.1"/>
									
										<rect x="129.6" y="378.9" transform="matrix(-1 -1.224647e-16 1.224647e-16 -1 294.2528 792.944)" class="st17" width="35.1" height="35.1"/>
									<rect x="94.5" y="378.9" class="st9" width="35.1" height="35.1"/>
									<rect x="234.8" y="378.9" class="st18" width="35.1" height="35.1"/>
									
										<rect x="269.8" y="378.9" transform="matrix(-1 -1.224647e-16 1.224647e-16 -1 574.712 792.944)" class="st19" width="35.1" height="35.1"/>
									<rect x="304.9" y="378.9" class="st20" width="35.1" height="35.1"/>
									
										<rect x="339.9" y="378.9" transform="matrix(-1 -1.224647e-16 1.224647e-16 -1 714.9415 792.944)" class="st21" width="35.1" height="35.1"/>
								</g>
								<g>
									
										<rect x="760.6" y="414" transform="matrix(-1 -1.224647e-16 1.224647e-16 -1 1556.3193 863.0588)" class="st22" width="35.1" height="35.1"/>
									<rect x="725.6" y="414" class="st4" width="35.1" height="35.1"/>
									
										<rect x="690.5" y="414" transform="matrix(-1 -1.224647e-16 1.224647e-16 -1 1416.0895 863.0588)" class="st23" width="35.1" height="35.1"/>
									<rect x="655.5" y="414" class="st6" width="35.1" height="35.1"/>
									<rect x="515.2" y="414" class="st7" width="35.1" height="35.1"/>
									
										<rect x="550.3" y="414" transform="matrix(-1 -1.224647e-16 1.224647e-16 -1 1135.6302 863.0588)" class="st24" width="35.1" height="35.1"/>
									<rect x="585.3" y="414" class="st9" width="35.1" height="35.1"/>
									
										<rect x="620.4" y="414" transform="matrix(-1 -1.224647e-16 1.224647e-16 -1 1275.8599 863.0588)" class="st25" width="35.1" height="35.1"/>
									
										<rect x="480.2" y="414" transform="matrix(-1 -1.224647e-16 1.224647e-16 -1 995.4007 863.0588)" class="st18" width="35.1" height="35.1"/>
									<rect x="445.1" y="414" class="st11" width="35.1" height="35.1"/>
									
										<rect x="410.1" y="414" transform="matrix(-1 -1.224647e-16 1.224647e-16 -1 855.1711 863.0588)" class="st7" width="35.1" height="35.1"/>
									<rect x="375" y="414" class="st8" width="35.1" height="35.1"/>
									<rect x="-45.7" y="414" class="st26" width="35.1" height="35.1"/>
									
										<rect x="-10.6" y="414" transform="matrix(-1 -1.224647e-16 1.224647e-16 -1 13.7936 863.0588)" class="st27" width="35.1" height="35.1"/>
									<rect x="24.4" y="414" class="st14" width="35.1" height="35.1"/>
									
										<rect x="59.5" y="414" transform="matrix(-1 -1.224647e-16 1.224647e-16 -1 154.0232 863.0588)" class="st28" width="35.1" height="35.1"/>
									
										<rect x="199.7" y="414" transform="matrix(-1 -1.224647e-16 1.224647e-16 -1 434.4824 863.0588)" class="st29" width="35.1" height="35.1"/>
									<rect x="164.7" y="414" class="st11" width="35.1" height="35.1"/>
									
										<rect x="129.6" y="414" transform="matrix(-1 -1.224647e-16 1.224647e-16 -1 294.2528 863.0588)" class="st30" width="35.1" height="35.1"/>
									<rect x="94.5" y="414" class="st31" width="35.1" height="35.1"/>
									<rect x="234.8" y="414" class="st16" width="35.1" height="35.1"/>
									
										<rect x="269.8" y="414" transform="matrix(-1 -1.224647e-16 1.224647e-16 -1 574.712 863.0588)" class="st16" width="35.1" height="35.1"/>
									<rect x="304.9" y="414" class="st20" width="35.1" height="35.1"/>
									
										<rect x="339.9" y="414" transform="matrix(-1 -1.224647e-16 1.224647e-16 -1 714.9415 863.0588)" class="st21" width="35.1" height="35.1"/>
								</g>
							</g>
						</g>
					</g>
					<g>
						<g>
							<g>
								<g>
									<rect x="-45.7" y="-41.7" class="st3" width="35.1" height="35.1"/>
									
										<rect x="-10.6" y="-41.7" transform="matrix(-1 -1.224647e-16 1.224647e-16 -1 13.7936 -48.4335)" class="st4" width="35.1" height="35.1"/>
									<rect x="24.4" y="-41.7" class="st5" width="35.1" height="35.1"/>
									
										<rect x="59.5" y="-41.7" transform="matrix(-1 -1.224647e-16 1.224647e-16 -1 154.0232 -48.4335)" class="st6" width="35.1" height="35.1"/>
									
										<rect x="199.7" y="-41.7" transform="matrix(-1 -1.224647e-16 1.224647e-16 -1 434.4824 -48.4335)" class="st7" width="35.1" height="35.1"/>
									<rect x="164.7" y="-41.7" class="st8" width="35.1" height="35.1"/>
									
										<rect x="129.6" y="-41.7" transform="matrix(-1 -1.224647e-16 1.224647e-16 -1 294.2528 -48.4335)" class="st9" width="35.1" height="35.1"/>
									<rect x="94.5" y="-41.7" class="st10" width="35.1" height="35.1"/>
									<rect x="234.8" y="-41.7" class="st6" width="35.1" height="35.1"/>
									
										<rect x="269.8" y="-41.7" transform="matrix(-1 -1.224647e-16 1.224647e-16 -1 574.712 -48.4335)" class="st11" width="35.1" height="35.1"/>
									<rect x="304.9" y="-41.7" class="st7" width="35.1" height="35.1"/>
									
										<rect x="339.9" y="-41.7" transform="matrix(-1 -1.224647e-16 1.224647e-16 -1 714.9415 -48.4335)" class="st8" width="35.1" height="35.1"/>
									
										<rect x="760.6" y="-41.7" transform="matrix(-1 -1.224647e-16 1.224647e-16 -1 1556.3193 -48.4335)" class="st12" width="35.1" height="35.1"/>
									<rect x="725.6" y="-41.7" class="st13" width="35.1" height="35.1"/>
									
										<rect x="690.5" y="-41.7" transform="matrix(-1 -1.224647e-16 1.224647e-16 -1 1416.0895 -48.4335)" class="st14" width="35.1" height="35.1"/>
									<rect x="655.5" y="-41.7" class="st15" width="35.1" height="35.1"/>
									<rect x="515.2" y="-41.7" class="st16" width="35.1" height="35.1"/>
									
										<rect x="550.3" y="-41.7" transform="matrix(-1 -1.224647e-16 1.224647e-16 -1 1135.6302 -48.4335)" class="st11" width="35.1" height="35.1"/>
									<rect x="585.3" y="-41.7" class="st17" width="35.1" height="35.1"/>
									
										<rect x="620.4" y="-41.7" transform="matrix(-1 -1.224647e-16 1.224647e-16 -1 1275.8599 -48.4335)" class="st9" width="35.1" height="35.1"/>
									
										<rect x="480.2" y="-41.7" transform="matrix(-1 -1.224647e-16 1.224647e-16 -1 995.4007 -48.4335)" class="st18" width="35.1" height="35.1"/>
									<rect x="445.1" y="-41.7" class="st19" width="35.1" height="35.1"/>
									
										<rect x="410.1" y="-41.7" transform="matrix(-1 -1.224647e-16 1.224647e-16 -1 855.1711 -48.4335)" class="st20" width="35.1" height="35.1"/>
									<rect x="375" y="-41.7" class="st21" width="35.1" height="35.1"/>
								</g>
								<g>
									
										<rect x="760.6" y="-6.7" transform="matrix(-1 -1.224647e-16 1.224647e-16 -1 1556.3193 21.6813)" class="st3" width="35.1" height="35.1"/>
									<rect x="725.6" y="-6.7" class="st4" width="35.1" height="35.1"/>
									
										<rect x="690.5" y="-6.7" transform="matrix(-1 -1.224647e-16 1.224647e-16 -1 1416.0895 21.6813)" class="st5" width="35.1" height="35.1"/>
									<rect x="655.5" y="-6.7" class="st6" width="35.1" height="35.1"/>
									<rect x="515.2" y="-6.7" class="st7" width="35.1" height="35.1"/>
									
										<rect x="550.3" y="-6.7" transform="matrix(-1 -1.224647e-16 1.224647e-16 -1 1135.6302 21.6813)" class="st8" width="35.1" height="35.1"/>
									<rect x="585.3" y="-6.7" class="st9" width="35.1" height="35.1"/>
									
										<rect x="620.4" y="-6.7" transform="matrix(-1 -1.224647e-16 1.224647e-16 -1 1275.8599 21.6813)" class="st10" width="35.1" height="35.1"/>
									
										<rect x="480.2" y="-6.7" transform="matrix(-1 -1.224647e-16 1.224647e-16 -1 995.4007 21.6813)" class="st6" width="35.1" height="35.1"/>
									<rect x="445.1" y="-6.7" class="st11" width="35.1" height="35.1"/>
									
										<rect x="410.1" y="-6.7" transform="matrix(-1 -1.224647e-16 1.224647e-16 -1 855.1711 21.6813)" class="st7" width="35.1" height="35.1"/>
									<rect x="375" y="-6.7" class="st8" width="35.1" height="35.1"/>
									<rect x="-45.7" y="-6.7" class="st12" width="35.1" height="35.1"/>
									
										<rect x="-10.6" y="-6.7" transform="matrix(-1 -1.224647e-16 1.224647e-16 -1 13.7936 21.6813)" class="st13" width="35.1" height="35.1"/>
									<rect x="24.4" y="-6.7" class="st14" width="35.1" height="35.1"/>
									
										<rect x="59.5" y="-6.7" transform="matrix(-1 -1.224647e-16 1.224647e-16 -1 154.0232 21.6813)" class="st15" width="35.1" height="35.1"/>
									
										<rect x="199.7" y="-6.7" transform="matrix(-1 -1.224647e-16 1.224647e-16 -1 434.4824 21.6813)" class="st16" width="35.1" height="35.1"/>
									<rect x="164.7" y="-6.7" class="st11" width="35.1" height="35.1"/>
									
										<rect x="129.6" y="-6.7" transform="matrix(-1 -1.224647e-16 1.224647e-16 -1 294.2528 21.6813)" class="st17" width="35.1" height="35.1"/>
									<rect x="94.5" y="-6.7" class="st9" width="35.1" height="35.1"/>
									<rect x="234.8" y="-6.7" class="st18" width="35.1" height="35.1"/>
									
										<rect x="269.8" y="-6.7" transform="matrix(-1 -1.224647e-16 1.224647e-16 -1 574.712 21.6813)" class="st19" width="35.1" height="35.1"/>
									<rect x="304.9" y="-6.7" class="st20" width="35.1" height="35.1"/>
									
										<rect x="339.9" y="-6.7" transform="matrix(-1 -1.224647e-16 1.224647e-16 -1 714.9415 21.6813)" class="st21" width="35.1" height="35.1"/>
								</g>
								<g>
									<rect x="-45.7" y="63.4" class="st3" width="35.1" height="35.1"/>
									
										<rect x="-10.6" y="63.4" transform="matrix(-1 -1.224647e-16 1.224647e-16 -1 13.7936 161.9109)" class="st4" width="35.1" height="35.1"/>
									<rect x="24.4" y="63.4" class="st5" width="35.1" height="35.1"/>
									
										<rect x="59.5" y="63.4" transform="matrix(-1 -1.224647e-16 1.224647e-16 -1 154.0232 161.9109)" class="st6" width="35.1" height="35.1"/>
									
										<rect x="199.7" y="63.4" transform="matrix(-1 -1.224647e-16 1.224647e-16 -1 434.4824 161.9109)" class="st7" width="35.1" height="35.1"/>
									<rect x="164.7" y="63.4" class="st8" width="35.1" height="35.1"/>
									
										<rect x="129.6" y="63.4" transform="matrix(-1 -1.224647e-16 1.224647e-16 -1 294.2528 161.9109)" class="st9" width="35.1" height="35.1"/>
									<rect x="94.5" y="63.4" class="st10" width="35.1" height="35.1"/>
									<rect x="234.8" y="63.4" class="st6" width="35.1" height="35.1"/>
									
										<rect x="269.8" y="63.4" transform="matrix(-1 -1.224647e-16 1.224647e-16 -1 574.712 161.9109)" class="st11" width="35.1" height="35.1"/>
									<rect x="304.9" y="63.4" class="st7" width="35.1" height="35.1"/>
									
										<rect x="339.9" y="63.4" transform="matrix(-1 -1.224647e-16 1.224647e-16 -1 714.9415 161.9109)" class="st8" width="35.1" height="35.1"/>
									
										<rect x="760.6" y="63.4" transform="matrix(-1 -1.224647e-16 1.224647e-16 -1 1556.3193 161.9109)" class="st12" width="35.1" height="35.1"/>
									<rect x="725.6" y="63.4" class="st13" width="35.1" height="35.1"/>
									
										<rect x="690.5" y="63.4" transform="matrix(-1 -1.224647e-16 1.224647e-16 -1 1416.0895 161.9109)" class="st14" width="35.1" height="35.1"/>
									<rect x="655.5" y="63.4" class="st15" width="35.1" height="35.1"/>
									<rect x="515.2" y="63.4" class="st16" width="35.1" height="35.1"/>
									
										<rect x="550.3" y="63.4" transform="matrix(-1 -1.224647e-16 1.224647e-16 -1 1135.6302 161.9109)" class="st11" width="35.1" height="35.1"/>
									<rect x="585.3" y="63.4" class="st17" width="35.1" height="35.1"/>
									
										<rect x="620.4" y="63.4" transform="matrix(-1 -1.224647e-16 1.224647e-16 -1 1275.8599 161.9109)" class="st9" width="35.1" height="35.1"/>
									
										<rect x="480.2" y="63.4" transform="matrix(-1 -1.224647e-16 1.224647e-16 -1 995.4007 161.9109)" class="st18" width="35.1" height="35.1"/>
									<rect x="445.1" y="63.4" class="st19" width="35.1" height="35.1"/>
									
										<rect x="410.1" y="63.4" transform="matrix(-1 -1.224647e-16 1.224647e-16 -1 855.1711 161.9109)" class="st20" width="35.1" height="35.1"/>
									<rect x="375" y="63.4" class="st21" width="35.1" height="35.1"/>
								</g>
								<g>
									<rect x="-45.7" y="28.4" class="st22" width="35.1" height="35.1"/>
									
										<rect x="-10.6" y="28.4" transform="matrix(-1 -1.224647e-16 1.224647e-16 -1 13.7936 91.7961)" class="st4" width="35.1" height="35.1"/>
									<rect x="24.4" y="28.4" class="st23" width="35.1" height="35.1"/>
									
										<rect x="59.5" y="28.4" transform="matrix(-1 -1.224647e-16 1.224647e-16 -1 154.0232 91.7961)" class="st6" width="35.1" height="35.1"/>
									
										<rect x="199.7" y="28.4" transform="matrix(-1 -1.224647e-16 1.224647e-16 -1 434.4824 91.7961)" class="st7" width="35.1" height="35.1"/>
									<rect x="164.7" y="28.4" class="st24" width="35.1" height="35.1"/>
									
										<rect x="129.6" y="28.4" transform="matrix(-1 -1.224647e-16 1.224647e-16 -1 294.2528 91.7961)" class="st9" width="35.1" height="35.1"/>
									<rect x="94.5" y="28.4" class="st25" width="35.1" height="35.1"/>
									<rect x="234.8" y="28.4" class="st18" width="35.1" height="35.1"/>
									
										<rect x="269.8" y="28.4" transform="matrix(-1 -1.224647e-16 1.224647e-16 -1 574.712 91.7961)" class="st11" width="35.1" height="35.1"/>
									<rect x="304.9" y="28.4" class="st7" width="35.1" height="35.1"/>
									
										<rect x="339.9" y="28.4" transform="matrix(-1 -1.224647e-16 1.224647e-16 -1 714.9415 91.7961)" class="st8" width="35.1" height="35.1"/>
									
										<rect x="760.6" y="28.4" transform="matrix(-1 -1.224647e-16 1.224647e-16 -1 1556.3193 91.7961)" class="st26" width="35.1" height="35.1"/>
									<rect x="725.6" y="28.4" class="st27" width="35.1" height="35.1"/>
									
										<rect x="690.5" y="28.4" transform="matrix(-1 -1.224647e-16 1.224647e-16 -1 1416.0895 91.7961)" class="st14" width="35.1" height="35.1"/>
									<rect x="655.5" y="28.4" class="st28" width="35.1" height="35.1"/>
									<rect x="515.2" y="28.4" class="st29" width="35.1" height="35.1"/>
									
										<rect x="550.3" y="28.4" transform="matrix(-1 -1.224647e-16 1.224647e-16 -1 1135.6302 91.7961)" class="st11" width="35.1" height="35.1"/>
									<rect x="585.3" y="28.4" class="st30" width="35.1" height="35.1"/>
									
										<rect x="620.4" y="28.4" transform="matrix(-1 -1.224647e-16 1.224647e-16 -1 1275.8599 91.7961)" class="st31" width="35.1" height="35.1"/>
									
										<rect x="480.2" y="28.4" transform="matrix(-1 -1.224647e-16 1.224647e-16 -1 995.4007 91.7961)" class="st16" width="35.1" height="35.1"/>
									<rect x="445.1" y="28.4" class="st16" width="35.1" height="35.1"/>
									
										<rect x="410.1" y="28.4" transform="matrix(-1 -1.224647e-16 1.224647e-16 -1 855.1711 91.7961)" class="st20" width="35.1" height="35.1"/>
									<rect x="375" y="28.4" class="st21" width="35.1" height="35.1"/>
								</g>
							</g>
							<g>
								<g>
									
										<rect x="760.6" y="203.7" transform="matrix(-1 -1.224647e-16 1.224647e-16 -1 1556.3193 442.37)" class="st3" width="35.1" height="35.1"/>
									<rect x="725.6" y="203.7" class="st4" width="35.1" height="35.1"/>
									
										<rect x="690.5" y="203.7" transform="matrix(-1 -1.224647e-16 1.224647e-16 -1 1416.0895 442.37)" class="st5" width="35.1" height="35.1"/>
									<rect x="655.5" y="203.7" class="st6" width="35.1" height="35.1"/>
									<rect x="515.2" y="203.7" class="st7" width="35.1" height="35.1"/>
									
										<rect x="550.3" y="203.7" transform="matrix(-1 -1.224647e-16 1.224647e-16 -1 1135.6302 442.37)" class="st8" width="35.1" height="35.1"/>
									<rect x="585.3" y="203.7" class="st9" width="35.1" height="35.1"/>
									
										<rect x="620.4" y="203.7" transform="matrix(-1 -1.224647e-16 1.224647e-16 -1 1275.8599 442.37)" class="st10" width="35.1" height="35.1"/>
									
										<rect x="480.2" y="203.7" transform="matrix(-1 -1.224647e-16 1.224647e-16 -1 995.4007 442.37)" class="st6" width="35.1" height="35.1"/>
									<rect x="445.1" y="203.7" class="st11" width="35.1" height="35.1"/>
									
										<rect x="410.1" y="203.7" transform="matrix(-1 -1.224647e-16 1.224647e-16 -1 855.1711 442.37)" class="st7" width="35.1" height="35.1"/>
									<rect x="375" y="203.7" class="st8" width="35.1" height="35.1"/>
									<rect x="-45.7" y="203.7" class="st12" width="35.1" height="35.1"/>
									
										<rect x="-10.6" y="203.7" transform="matrix(-1 -1.224647e-16 1.224647e-16 -1 13.7936 442.37)" class="st13" width="35.1" height="35.1"/>
									<rect x="24.4" y="203.7" class="st14" width="35.1" height="35.1"/>
									
										<rect x="59.5" y="203.7" transform="matrix(-1 -1.224647e-16 1.224647e-16 -1 154.0232 442.37)" class="st15" width="35.1" height="35.1"/>
									
										<rect x="199.7" y="203.7" transform="matrix(-1 -1.224647e-16 1.224647e-16 -1 434.4824 442.37)" class="st16" width="35.1" height="35.1"/>
									<rect x="164.7" y="203.7" class="st11" width="35.1" height="35.1"/>
									
										<rect x="129.6" y="203.7" transform="matrix(-1 -1.224647e-16 1.224647e-16 -1 294.2528 442.37)" class="st17" width="35.1" height="35.1"/>
									<rect x="94.5" y="203.7" class="st9" width="35.1" height="35.1"/>
									<rect x="234.8" y="203.7" class="st18" width="35.1" height="35.1"/>
									
										<rect x="269.8" y="203.7" transform="matrix(-1 -1.224647e-16 1.224647e-16 -1 574.712 442.37)" class="st19" width="35.1" height="35.1"/>
									<rect x="304.9" y="203.7" class="st20" width="35.1" height="35.1"/>
									
										<rect x="339.9" y="203.7" transform="matrix(-1 -1.224647e-16 1.224647e-16 -1 714.9415 442.37)" class="st21" width="35.1" height="35.1"/>
								</g>
								<g>
									<rect x="-45.7" y="168.6" class="st3" width="35.1" height="35.1"/>
									
										<rect x="-10.6" y="168.6" transform="matrix(-1 -1.224647e-16 1.224647e-16 -1 13.7936 372.2552)" class="st4" width="35.1" height="35.1"/>
									<rect x="24.4" y="168.6" class="st5" width="35.1" height="35.1"/>
									
										<rect x="59.5" y="168.6" transform="matrix(-1 -1.224647e-16 1.224647e-16 -1 154.0232 372.2552)" class="st6" width="35.1" height="35.1"/>
									
										<rect x="199.7" y="168.6" transform="matrix(-1 -1.224647e-16 1.224647e-16 -1 434.4824 372.2552)" class="st7" width="35.1" height="35.1"/>
									<rect x="164.7" y="168.6" class="st8" width="35.1" height="35.1"/>
									
										<rect x="129.6" y="168.6" transform="matrix(-1 -1.224647e-16 1.224647e-16 -1 294.2528 372.2552)" class="st9" width="35.1" height="35.1"/>
									<rect x="94.5" y="168.6" class="st10" width="35.1" height="35.1"/>
									<rect x="234.8" y="168.6" class="st6" width="35.1" height="35.1"/>
									
										<rect x="269.8" y="168.6" transform="matrix(-1 -1.224647e-16 1.224647e-16 -1 574.712 372.2552)" class="st11" width="35.1" height="35.1"/>
									<rect x="304.9" y="168.6" class="st7" width="35.1" height="35.1"/>
									
										<rect x="339.9" y="168.6" transform="matrix(-1 -1.224647e-16 1.224647e-16 -1 714.9415 372.2552)" class="st8" width="35.1" height="35.1"/>
									
										<rect x="760.6" y="168.6" transform="matrix(-1 -1.224647e-16 1.224647e-16 -1 1556.3193 372.2552)" class="st12" width="35.1" height="35.1"/>
									<rect x="725.6" y="168.6" class="st13" width="35.1" height="35.1"/>
									
										<rect x="690.5" y="168.6" transform="matrix(-1 -1.224647e-16 1.224647e-16 -1 1416.0895 372.2552)" class="st14" width="35.1" height="35.1"/>
									<rect x="655.5" y="168.6" class="st15" width="35.1" height="35.1"/>
									<rect x="515.2" y="168.6" class="st16" width="35.1" height="35.1"/>
									
										<rect x="550.3" y="168.6" transform="matrix(-1 -1.224647e-16 1.224647e-16 -1 1135.6302 372.2552)" class="st11" width="35.1" height="35.1"/>
									<rect x="585.3" y="168.6" class="st17" width="35.1" height="35.1"/>
									
										<rect x="620.4" y="168.6" transform="matrix(-1 -1.224647e-16 1.224647e-16 -1 1275.8599 372.2552)" class="st9" width="35.1" height="35.1"/>
									
										<rect x="480.2" y="168.6" transform="matrix(-1 -1.224647e-16 1.224647e-16 -1 995.4007 372.2552)" class="st18" width="35.1" height="35.1"/>
									<rect x="445.1" y="168.6" class="st19" width="35.1" height="35.1"/>
									
										<rect x="410.1" y="168.6" transform="matrix(-1 -1.224647e-16 1.224647e-16 -1 855.1711 372.2552)" class="st20" width="35.1" height="35.1"/>
									<rect x="375" y="168.6" class="st21" width="35.1" height="35.1"/>
								</g>
								<g>
									
										<rect x="760.6" y="98.5" transform="matrix(-1 -1.224647e-16 1.224647e-16 -1 1556.3193 232.0257)" class="st3" width="35.1" height="35.1"/>
									<rect x="725.6" y="98.5" class="st4" width="35.1" height="35.1"/>
									
										<rect x="690.5" y="98.5" transform="matrix(-1 -1.224647e-16 1.224647e-16 -1 1416.0895 232.0257)" class="st5" width="35.1" height="35.1"/>
									<rect x="655.5" y="98.5" class="st6" width="35.1" height="35.1"/>
									<rect x="515.2" y="98.5" class="st7" width="35.1" height="35.1"/>
									
										<rect x="550.3" y="98.5" transform="matrix(-1 -1.224647e-16 1.224647e-16 -1 1135.6302 232.0257)" class="st8" width="35.1" height="35.1"/>
									<rect x="585.3" y="98.5" class="st9" width="35.1" height="35.1"/>
									
										<rect x="620.4" y="98.5" transform="matrix(-1 -1.224647e-16 1.224647e-16 -1 1275.8599 232.0257)" class="st10" width="35.1" height="35.1"/>
									
										<rect x="480.2" y="98.5" transform="matrix(-1 -1.224647e-16 1.224647e-16 -1 995.4007 232.0257)" class="st6" width="35.1" height="35.1"/>
									<rect x="445.1" y="98.5" class="st11" width="35.1" height="35.1"/>
									
										<rect x="410.1" y="98.5" transform="matrix(-1 -1.224647e-16 1.224647e-16 -1 855.1711 232.0257)" class="st7" width="35.1" height="35.1"/>
									<rect x="375" y="98.5" class="st8" width="35.1" height="35.1"/>
									<rect x="-45.7" y="98.5" class="st12" width="35.1" height="35.1"/>
									
										<rect x="-10.6" y="98.5" transform="matrix(-1 -1.224647e-16 1.224647e-16 -1 13.7936 232.0257)" class="st13" width="35.1" height="35.1"/>
									<rect x="24.4" y="98.5" class="st14" width="35.1" height="35.1"/>
									
										<rect x="59.5" y="98.5" transform="matrix(-1 -1.224647e-16 1.224647e-16 -1 154.0232 232.0257)" class="st15" width="35.1" height="35.1"/>
									
										<rect x="199.7" y="98.5" transform="matrix(-1 -1.224647e-16 1.224647e-16 -1 434.4824 232.0257)" class="st16" width="35.1" height="35.1"/>
									<rect x="164.7" y="98.5" class="st11" width="35.1" height="35.1"/>
									
										<rect x="129.6" y="98.5" transform="matrix(-1 -1.224647e-16 1.224647e-16 -1 294.2528 232.0257)" class="st17" width="35.1" height="35.1"/>
									<rect x="94.5" y="98.5" class="st9" width="35.1" height="35.1"/>
									<rect x="234.8" y="98.5" class="st18" width="35.1" height="35.1"/>
									
										<rect x="269.8" y="98.5" transform="matrix(-1 -1.224647e-16 1.224647e-16 -1 574.712 232.0257)" class="st19" width="35.1" height="35.1"/>
									<rect x="304.9" y="98.5" class="st20" width="35.1" height="35.1"/>
									
										<rect x="339.9" y="98.5" transform="matrix(-1 -1.224647e-16 1.224647e-16 -1 714.9415 232.0257)" class="st21" width="35.1" height="35.1"/>
								</g>
								<g>
									
										<rect x="760.6" y="133.5" transform="matrix(-1 -1.224647e-16 1.224647e-16 -1 1556.3193 302.1404)" class="st22" width="35.1" height="35.1"/>
									<rect x="725.6" y="133.5" class="st4" width="35.1" height="35.1"/>
									
										<rect x="690.5" y="133.5" transform="matrix(-1 -1.224647e-16 1.224647e-16 -1 1416.0895 302.1404)" class="st23" width="35.1" height="35.1"/>
									<rect x="655.5" y="133.5" class="st6" width="35.1" height="35.1"/>
									<rect x="515.2" y="133.5" class="st7" width="35.1" height="35.1"/>
									
										<rect x="550.3" y="133.5" transform="matrix(-1 -1.224647e-16 1.224647e-16 -1 1135.6302 302.1404)" class="st24" width="35.1" height="35.1"/>
									<rect x="585.3" y="133.5" class="st9" width="35.1" height="35.1"/>
									
										<rect x="620.4" y="133.5" transform="matrix(-1 -1.224647e-16 1.224647e-16 -1 1275.8599 302.1404)" class="st25" width="35.1" height="35.1"/>
									
										<rect x="480.2" y="133.5" transform="matrix(-1 -1.224647e-16 1.224647e-16 -1 995.4007 302.1404)" class="st18" width="35.1" height="35.1"/>
									<rect x="445.1" y="133.5" class="st11" width="35.1" height="35.1"/>
									
										<rect x="410.1" y="133.5" transform="matrix(-1 -1.224647e-16 1.224647e-16 -1 855.1711 302.1404)" class="st7" width="35.1" height="35.1"/>
									<rect x="375" y="133.5" class="st8" width="35.1" height="35.1"/>
									<rect x="-45.7" y="133.5" class="st26" width="35.1" height="35.1"/>
									
										<rect x="-10.6" y="133.5" transform="matrix(-1 -1.224647e-16 1.224647e-16 -1 13.7936 302.1404)" class="st27" width="35.1" height="35.1"/>
									<rect x="24.4" y="133.5" class="st14" width="35.1" height="35.1"/>
									
										<rect x="59.5" y="133.5" transform="matrix(-1 -1.224647e-16 1.224647e-16 -1 154.0232 302.1404)" class="st28" width="35.1" height="35.1"/>
									
										<rect x="199.7" y="133.5" transform="matrix(-1 -1.224647e-16 1.224647e-16 -1 434.4824 302.1404)" class="st29" width="35.1" height="35.1"/>
									<rect x="164.7" y="133.5" class="st11" width="35.1" height="35.1"/>
									
										<rect x="129.6" y="133.5" transform="matrix(-1 -1.224647e-16 1.224647e-16 -1 294.2528 302.1404)" class="st30" width="35.1" height="35.1"/>
									<rect x="94.5" y="133.5" class="st31" width="35.1" height="35.1"/>
									<rect x="234.8" y="133.5" class="st16" width="35.1" height="35.1"/>
									
										<rect x="269.8" y="133.5" transform="matrix(-1 -1.224647e-16 1.224647e-16 -1 574.712 302.1404)" class="st16" width="35.1" height="35.1"/>
									<rect x="304.9" y="133.5" class="st20" width="35.1" height="35.1"/>
									
										<rect x="339.9" y="133.5" transform="matrix(-1 -1.224647e-16 1.224647e-16 -1 714.9415 302.1404)" class="st21" width="35.1" height="35.1"/>
								</g>
							</g>
						</g>
						<g>
							<g>
								<g>
									<rect x="-45.7" y="238.7" class="st3" width="35.1" height="35.1"/>
									
										<rect x="-10.6" y="238.7" transform="matrix(-1 -1.224647e-16 1.224647e-16 -1 13.7936 512.4848)" class="st4" width="35.1" height="35.1"/>
									<rect x="24.4" y="238.7" class="st5" width="35.1" height="35.1"/>
									
										<rect x="59.5" y="238.7" transform="matrix(-1 -1.224647e-16 1.224647e-16 -1 154.0232 512.4848)" class="st6" width="35.1" height="35.1"/>
									
										<rect x="199.7" y="238.7" transform="matrix(-1 -1.224647e-16 1.224647e-16 -1 434.4824 512.4848)" class="st7" width="35.1" height="35.1"/>
									<rect x="164.7" y="238.7" class="st8" width="35.1" height="35.1"/>
									
										<rect x="129.6" y="238.7" transform="matrix(-1 -1.224647e-16 1.224647e-16 -1 294.2528 512.4848)" class="st9" width="35.1" height="35.1"/>
									<rect x="94.5" y="238.7" class="st10" width="35.1" height="35.1"/>
									<rect x="234.8" y="238.7" class="st6" width="35.1" height="35.1"/>
									
										<rect x="269.8" y="238.7" transform="matrix(-1 -1.224647e-16 1.224647e-16 -1 574.712 512.4848)" class="st11" width="35.1" height="35.1"/>
									<rect x="304.9" y="238.7" class="st7" width="35.1" height="35.1"/>
									
										<rect x="339.9" y="238.7" transform="matrix(-1 -1.224647e-16 1.224647e-16 -1 714.9415 512.4848)" class="st8" width="35.1" height="35.1"/>
									
										<rect x="760.6" y="238.7" transform="matrix(-1 -1.224647e-16 1.224647e-16 -1 1556.3193 512.4848)" class="st12" width="35.1" height="35.1"/>
									<rect x="725.6" y="238.7" class="st13" width="35.1" height="35.1"/>
									
										<rect x="690.5" y="238.7" transform="matrix(-1 -1.224647e-16 1.224647e-16 -1 1416.0895 512.4848)" class="st14" width="35.1" height="35.1"/>
									<rect x="655.5" y="238.7" class="st15" width="35.1" height="35.1"/>
									<rect x="515.2" y="238.7" class="st16" width="35.1" height="35.1"/>
									
										<rect x="550.3" y="238.7" transform="matrix(-1 -1.224647e-16 1.224647e-16 -1 1135.6302 512.4848)" class="st11" width="35.1" height="35.1"/>
									<rect x="585.3" y="238.7" class="st17" width="35.1" height="35.1"/>
									
										<rect x="620.4" y="238.7" transform="matrix(-1 -1.224647e-16 1.224647e-16 -1 1275.8599 512.4848)" class="st9" width="35.1" height="35.1"/>
									
										<rect x="480.2" y="238.7" transform="matrix(-1 -1.224647e-16 1.224647e-16 -1 995.4007 512.4848)" class="st18" width="35.1" height="35.1"/>
									<rect x="445.1" y="238.7" class="st19" width="35.1" height="35.1"/>
									
										<rect x="410.1" y="238.7" transform="matrix(-1 -1.224647e-16 1.224647e-16 -1 855.1711 512.4848)" class="st20" width="35.1" height="35.1"/>
									<rect x="375" y="238.7" class="st21" width="35.1" height="35.1"/>
								</g>
								<g>
									
										<rect x="760.6" y="273.8" transform="matrix(-1 -1.224647e-16 1.224647e-16 -1 1556.3193 582.5996)" class="st3" width="35.1" height="35.1"/>
									<rect x="725.6" y="273.8" class="st4" width="35.1" height="35.1"/>
									
										<rect x="690.5" y="273.8" transform="matrix(-1 -1.224647e-16 1.224647e-16 -1 1416.0895 582.5996)" class="st5" width="35.1" height="35.1"/>
									<rect x="655.5" y="273.8" class="st6" width="35.1" height="35.1"/>
									<rect x="515.2" y="273.8" class="st7" width="35.1" height="35.1"/>
									
										<rect x="550.3" y="273.8" transform="matrix(-1 -1.224647e-16 1.224647e-16 -1 1135.6302 582.5996)" class="st8" width="35.1" height="35.1"/>
									<rect x="585.3" y="273.8" class="st9" width="35.1" height="35.1"/>
									
										<rect x="620.4" y="273.8" transform="matrix(-1 -1.224647e-16 1.224647e-16 -1 1275.8599 582.5996)" class="st10" width="35.1" height="35.1"/>
									
										<rect x="480.2" y="273.8" transform="matrix(-1 -1.224647e-16 1.224647e-16 -1 995.4007 582.5996)" class="st6" width="35.1" height="35.1"/>
									<rect x="445.1" y="273.8" class="st11" width="35.1" height="35.1"/>
									
										<rect x="410.1" y="273.8" transform="matrix(-1 -1.224647e-16 1.224647e-16 -1 855.1711 582.5996)" class="st7" width="35.1" height="35.1"/>
									<rect x="375" y="273.8" class="st8" width="35.1" height="35.1"/>
									<rect x="-45.7" y="273.8" class="st12" width="35.1" height="35.1"/>
									
										<rect x="-10.6" y="273.8" transform="matrix(-1 -1.224647e-16 1.224647e-16 -1 13.7936 582.5996)" class="st13" width="35.1" height="35.1"/>
									<rect x="24.4" y="273.8" class="st14" width="35.1" height="35.1"/>
									
										<rect x="59.5" y="273.8" transform="matrix(-1 -1.224647e-16 1.224647e-16 -1 154.0232 582.5996)" class="st15" width="35.1" height="35.1"/>
									
										<rect x="199.7" y="273.8" transform="matrix(-1 -1.224647e-16 1.224647e-16 -1 434.4824 582.5996)" class="st16" width="35.1" height="35.1"/>
									<rect x="164.7" y="273.8" class="st11" width="35.1" height="35.1"/>
									
										<rect x="129.6" y="273.8" transform="matrix(-1 -1.224647e-16 1.224647e-16 -1 294.2528 582.5996)" class="st17" width="35.1" height="35.1"/>
									<rect x="94.5" y="273.8" class="st9" width="35.1" height="35.1"/>
									<rect x="234.8" y="273.8" class="st18" width="35.1" height="35.1"/>
									
										<rect x="269.8" y="273.8" transform="matrix(-1 -1.224647e-16 1.224647e-16 -1 574.712 582.5996)" class="st19" width="35.1" height="35.1"/>
									<rect x="304.9" y="273.8" class="st20" width="35.1" height="35.1"/>
									
										<rect x="339.9" y="273.8" transform="matrix(-1 -1.224647e-16 1.224647e-16 -1 714.9415 582.5996)" class="st21" width="35.1" height="35.1"/>
								</g>
								<g>
									<rect x="-45.7" y="343.9" class="st3" width="35.1" height="35.1"/>
									
										<rect x="-10.6" y="343.9" transform="matrix(-1 -1.224647e-16 1.224647e-16 -1 13.7936 722.8292)" class="st4" width="35.1" height="35.1"/>
									<rect x="24.4" y="343.9" class="st5" width="35.1" height="35.1"/>
									
										<rect x="59.5" y="343.9" transform="matrix(-1 -1.224647e-16 1.224647e-16 -1 154.0232 722.8292)" class="st6" width="35.1" height="35.1"/>
									
										<rect x="199.7" y="343.9" transform="matrix(-1 -1.224647e-16 1.224647e-16 -1 434.4824 722.8292)" class="st7" width="35.1" height="35.1"/>
									<rect x="164.7" y="343.9" class="st8" width="35.1" height="35.1"/>
									
										<rect x="129.6" y="343.9" transform="matrix(-1 -1.224647e-16 1.224647e-16 -1 294.2528 722.8292)" class="st9" width="35.1" height="35.1"/>
									<rect x="94.5" y="343.9" class="st10" width="35.1" height="35.1"/>
									<rect x="234.8" y="343.9" class="st6" width="35.1" height="35.1"/>
									
										<rect x="269.8" y="343.9" transform="matrix(-1 -1.224647e-16 1.224647e-16 -1 574.712 722.8292)" class="st11" width="35.1" height="35.1"/>
									<rect x="304.9" y="343.9" class="st7" width="35.1" height="35.1"/>
									
										<rect x="339.9" y="343.9" transform="matrix(-1 -1.224647e-16 1.224647e-16 -1 714.9415 722.8292)" class="st8" width="35.1" height="35.1"/>
									
										<rect x="760.6" y="343.9" transform="matrix(-1 -1.224647e-16 1.224647e-16 -1 1556.3193 722.8292)" class="st12" width="35.1" height="35.1"/>
									<rect x="725.6" y="343.9" class="st13" width="35.1" height="35.1"/>
									
										<rect x="690.5" y="343.9" transform="matrix(-1 -1.224647e-16 1.224647e-16 -1 1416.0895 722.8292)" class="st14" width="35.1" height="35.1"/>
									<rect x="655.5" y="343.9" class="st15" width="35.1" height="35.1"/>
									<rect x="515.2" y="343.9" class="st16" width="35.1" height="35.1"/>
									
										<rect x="550.3" y="343.9" transform="matrix(-1 -1.224647e-16 1.224647e-16 -1 1135.6302 722.8292)" class="st11" width="35.1" height="35.1"/>
									<rect x="585.3" y="343.9" class="st17" width="35.1" height="35.1"/>
									
										<rect x="620.4" y="343.9" transform="matrix(-1 -1.224647e-16 1.224647e-16 -1 1275.8599 722.8292)" class="st9" width="35.1" height="35.1"/>
									
										<rect x="480.2" y="343.9" transform="matrix(-1 -1.224647e-16 1.224647e-16 -1 995.4007 722.8292)" class="st18" width="35.1" height="35.1"/>
									<rect x="445.1" y="343.9" class="st19" width="35.1" height="35.1"/>
									
										<rect x="410.1" y="343.9" transform="matrix(-1 -1.224647e-16 1.224647e-16 -1 855.1711 722.8292)" class="st20" width="35.1" height="35.1"/>
									<rect x="375" y="343.9" class="st21" width="35.1" height="35.1"/>
								</g>
								<g>
									<rect x="-45.7" y="308.8" class="st22" width="35.1" height="35.1"/>
									
										<rect x="-10.6" y="308.8" transform="matrix(-1 -1.224647e-16 1.224647e-16 -1 13.7936 652.7144)" class="st4" width="35.1" height="35.1"/>
									<rect x="24.4" y="308.8" class="st23" width="35.1" height="35.1"/>
									
										<rect x="59.5" y="308.8" transform="matrix(-1 -1.224647e-16 1.224647e-16 -1 154.0232 652.7144)" class="st6" width="35.1" height="35.1"/>
									
										<rect x="199.7" y="308.8" transform="matrix(-1 -1.224647e-16 1.224647e-16 -1 434.4824 652.7144)" class="st7" width="35.1" height="35.1"/>
									<rect x="164.7" y="308.8" class="st24" width="35.1" height="35.1"/>
									
										<rect x="129.6" y="308.8" transform="matrix(-1 -1.224647e-16 1.224647e-16 -1 294.2528 652.7144)" class="st9" width="35.1" height="35.1"/>
									<rect x="94.5" y="308.8" class="st25" width="35.1" height="35.1"/>
									<rect x="234.8" y="308.8" class="st18" width="35.1" height="35.1"/>
									
										<rect x="269.8" y="308.8" transform="matrix(-1 -1.224647e-16 1.224647e-16 -1 574.712 652.7144)" class="st11" width="35.1" height="35.1"/>
									<rect x="304.9" y="308.8" class="st7" width="35.1" height="35.1"/>
									
										<rect x="339.9" y="308.8" transform="matrix(-1 -1.224647e-16 1.224647e-16 -1 714.9415 652.7144)" class="st8" width="35.1" height="35.1"/>
									
										<rect x="760.6" y="308.8" transform="matrix(-1 -1.224647e-16 1.224647e-16 -1 1556.3193 652.7144)" class="st26" width="35.1" height="35.1"/>
									<rect x="725.6" y="308.8" class="st27" width="35.1" height="35.1"/>
									
										<rect x="690.5" y="308.8" transform="matrix(-1 -1.224647e-16 1.224647e-16 -1 1416.0895 652.7144)" class="st14" width="35.1" height="35.1"/>
									<rect x="655.5" y="308.8" class="st28" width="35.1" height="35.1"/>
									<rect x="515.2" y="308.8" class="st29" width="35.1" height="35.1"/>
									
										<rect x="550.3" y="308.8" transform="matrix(-1 -1.224647e-16 1.224647e-16 -1 1135.6302 652.7144)" class="st11" width="35.1" height="35.1"/>
									<rect x="585.3" y="308.8" class="st30" width="35.1" height="35.1"/>
									
										<rect x="620.4" y="308.8" transform="matrix(-1 -1.224647e-16 1.224647e-16 -1 1275.8599 652.7144)" class="st31" width="35.1" height="35.1"/>
									
										<rect x="480.2" y="308.8" transform="matrix(-1 -1.224647e-16 1.224647e-16 -1 995.4007 652.7144)" class="st16" width="35.1" height="35.1"/>
									<rect x="445.1" y="308.8" class="st16" width="35.1" height="35.1"/>
									
										<rect x="410.1" y="308.8" transform="matrix(-1 -1.224647e-16 1.224647e-16 -1 855.1711 652.7144)" class="st20" width="35.1" height="35.1"/>
									<rect x="375" y="308.8" class="st21" width="35.1" height="35.1"/>
								</g>
							</g>
							<g>
								<g>
									
										<rect x="760.6" y="484.1" transform="matrix(-1 -1.224647e-16 1.224647e-16 -1 1556.3193 1003.289)" class="st3" width="35.1" height="35.1"/>
									<rect x="725.6" y="484.1" class="st4" width="35.1" height="35.1"/>
									
										<rect x="690.5" y="484.1" transform="matrix(-1 -1.224647e-16 1.224647e-16 -1 1416.0895 1003.289)" class="st5" width="35.1" height="35.1"/>
									<rect x="655.5" y="484.1" class="st6" width="35.1" height="35.1"/>
									<rect x="515.2" y="484.1" class="st7" width="35.1" height="35.1"/>
									
										<rect x="550.3" y="484.1" transform="matrix(-1 -1.224647e-16 1.224647e-16 -1 1135.6302 1003.289)" class="st8" width="35.1" height="35.1"/>
									<rect x="585.3" y="484.1" class="st9" width="35.1" height="35.1"/>
									
										<rect x="620.4" y="484.1" transform="matrix(-1 -1.224647e-16 1.224647e-16 -1 1275.8599 1003.289)" class="st10" width="35.1" height="35.1"/>
									
										<rect x="480.2" y="484.1" transform="matrix(-1 -1.224647e-16 1.224647e-16 -1 995.4007 1003.289)" class="st6" width="35.1" height="35.1"/>
									<rect x="445.1" y="484.1" class="st11" width="35.1" height="35.1"/>
									
										<rect x="410.1" y="484.1" transform="matrix(-1 -1.224647e-16 1.224647e-16 -1 855.1711 1003.289)" class="st7" width="35.1" height="35.1"/>
									<rect x="375" y="484.1" class="st8" width="35.1" height="35.1"/>
									<rect x="-45.7" y="484.1" class="st12" width="35.1" height="35.1"/>
									
										<rect x="-10.6" y="484.1" transform="matrix(-1 -1.224647e-16 1.224647e-16 -1 13.7936 1003.289)" class="st13" width="35.1" height="35.1"/>
									<rect x="24.4" y="484.1" class="st14" width="35.1" height="35.1"/>
									
										<rect x="59.5" y="484.1" transform="matrix(-1 -1.224647e-16 1.224647e-16 -1 154.0232 1003.289)" class="st15" width="35.1" height="35.1"/>
									
										<rect x="199.7" y="484.1" transform="matrix(-1 -1.224647e-16 1.224647e-16 -1 434.4824 1003.289)" class="st16" width="35.1" height="35.1"/>
									<rect x="164.7" y="484.1" class="st11" width="35.1" height="35.1"/>
									
										<rect x="129.6" y="484.1" transform="matrix(-1 -1.224647e-16 1.224647e-16 -1 294.2528 1003.289)" class="st17" width="35.1" height="35.1"/>
									<rect x="94.5" y="484.1" class="st9" width="35.1" height="35.1"/>
									<rect x="234.8" y="484.1" class="st18" width="35.1" height="35.1"/>
									
										<rect x="269.8" y="484.1" transform="matrix(-1 -1.224647e-16 1.224647e-16 -1 574.712 1003.289)" class="st19" width="35.1" height="35.1"/>
									<rect x="304.9" y="484.1" class="st20" width="35.1" height="35.1"/>
									
										<rect x="339.9" y="484.1" transform="matrix(-1 -1.224647e-16 1.224647e-16 -1 714.9415 1003.289)" class="st21" width="35.1" height="35.1"/>
								</g>
								<g>
									<rect x="-45.7" y="449.1" class="st3" width="35.1" height="35.1"/>
									
										<rect x="-10.6" y="449.1" transform="matrix(-1 -1.224647e-16 1.224647e-16 -1 13.7936 933.1739)" class="st4" width="35.1" height="35.1"/>
									<rect x="24.4" y="449.1" class="st5" width="35.1" height="35.1"/>
									
										<rect x="59.5" y="449.1" transform="matrix(-1 -1.224647e-16 1.224647e-16 -1 154.0232 933.1739)" class="st6" width="35.1" height="35.1"/>
									
										<rect x="199.7" y="449.1" transform="matrix(-1 -1.224647e-16 1.224647e-16 -1 434.4824 933.1739)" class="st7" width="35.1" height="35.1"/>
									<rect x="164.7" y="449.1" class="st8" width="35.1" height="35.1"/>
									
										<rect x="129.6" y="449.1" transform="matrix(-1 -1.224647e-16 1.224647e-16 -1 294.2528 933.1739)" class="st9" width="35.1" height="35.1"/>
									<rect x="94.5" y="449.1" class="st10" width="35.1" height="35.1"/>
									<rect x="234.8" y="449.1" class="st6" width="35.1" height="35.1"/>
									
										<rect x="269.8" y="449.1" transform="matrix(-1 -1.224647e-16 1.224647e-16 -1 574.712 933.1739)" class="st11" width="35.1" height="35.1"/>
									<rect x="304.9" y="449.1" class="st7" width="35.1" height="35.1"/>
									
										<rect x="339.9" y="449.1" transform="matrix(-1 -1.224647e-16 1.224647e-16 -1 714.9415 933.1739)" class="st8" width="35.1" height="35.1"/>
									
										<rect x="760.6" y="449.1" transform="matrix(-1 -1.224647e-16 1.224647e-16 -1 1556.3193 933.1739)" class="st12" width="35.1" height="35.1"/>
									<rect x="725.6" y="449.1" class="st13" width="35.1" height="35.1"/>
									
										<rect x="690.5" y="449.1" transform="matrix(-1 -1.224647e-16 1.224647e-16 -1 1416.0895 933.1739)" class="st14" width="35.1" height="35.1"/>
									<rect x="655.5" y="449.1" class="st15" width="35.1" height="35.1"/>
									<rect x="515.2" y="449.1" class="st16" width="35.1" height="35.1"/>
									
										<rect x="550.3" y="449.1" transform="matrix(-1 -1.224647e-16 1.224647e-16 -1 1135.6302 933.1739)" class="st11" width="35.1" height="35.1"/>
									<rect x="585.3" y="449.1" class="st17" width="35.1" height="35.1"/>
									
										<rect x="620.4" y="449.1" transform="matrix(-1 -1.224647e-16 1.224647e-16 -1 1275.8599 933.1739)" class="st9" width="35.1" height="35.1"/>
									
										<rect x="480.2" y="449.1" transform="matrix(-1 -1.224647e-16 1.224647e-16 -1 995.4007 933.1739)" class="st18" width="35.1" height="35.1"/>
									<rect x="445.1" y="449.1" class="st19" width="35.1" height="35.1"/>
									
										<rect x="410.1" y="449.1" transform="matrix(-1 -1.224647e-16 1.224647e-16 -1 855.1711 933.1739)" class="st20" width="35.1" height="35.1"/>
									<rect x="375" y="449.1" class="st21" width="35.1" height="35.1"/>
								</g>
								<g>
									
										<rect x="760.6" y="378.9" transform="matrix(-1 -1.224647e-16 1.224647e-16 -1 1556.3193 792.944)" class="st3" width="35.1" height="35.1"/>
									<rect x="725.6" y="378.9" class="st4" width="35.1" height="35.1"/>
									
										<rect x="690.5" y="378.9" transform="matrix(-1 -1.224647e-16 1.224647e-16 -1 1416.0895 792.944)" class="st5" width="35.1" height="35.1"/>
									<rect x="655.5" y="378.9" class="st6" width="35.1" height="35.1"/>
									<rect x="515.2" y="378.9" class="st7" width="35.1" height="35.1"/>
									
										<rect x="550.3" y="378.9" transform="matrix(-1 -1.224647e-16 1.224647e-16 -1 1135.6302 792.944)" class="st8" width="35.1" height="35.1"/>
									<rect x="585.3" y="378.9" class="st9" width="35.1" height="35.1"/>
									
										<rect x="620.4" y="378.9" transform="matrix(-1 -1.224647e-16 1.224647e-16 -1 1275.8599 792.944)" class="st10" width="35.1" height="35.1"/>
									
										<rect x="480.2" y="378.9" transform="matrix(-1 -1.224647e-16 1.224647e-16 -1 995.4007 792.944)" class="st6" width="35.1" height="35.1"/>
									<rect x="445.1" y="378.9" class="st11" width="35.1" height="35.1"/>
									
										<rect x="410.1" y="378.9" transform="matrix(-1 -1.224647e-16 1.224647e-16 -1 855.1711 792.944)" class="st7" width="35.1" height="35.1"/>
									<rect x="375" y="378.9" class="st8" width="35.1" height="35.1"/>
									<rect x="-45.7" y="378.9" class="st12" width="35.1" height="35.1"/>
									
										<rect x="-10.6" y="378.9" transform="matrix(-1 -1.224647e-16 1.224647e-16 -1 13.7936 792.944)" class="st13" width="35.1" height="35.1"/>
									<rect x="24.4" y="378.9" class="st14" width="35.1" height="35.1"/>
									
										<rect x="59.5" y="378.9" transform="matrix(-1 -1.224647e-16 1.224647e-16 -1 154.0232 792.944)" class="st15" width="35.1" height="35.1"/>
									
										<rect x="199.7" y="378.9" transform="matrix(-1 -1.224647e-16 1.224647e-16 -1 434.4824 792.944)" class="st16" width="35.1" height="35.1"/>
									<rect x="164.7" y="378.9" class="st11" width="35.1" height="35.1"/>
									
										<rect x="129.6" y="378.9" transform="matrix(-1 -1.224647e-16 1.224647e-16 -1 294.2528 792.944)" class="st17" width="35.1" height="35.1"/>
									<rect x="94.5" y="378.9" class="st9" width="35.1" height="35.1"/>
									<rect x="234.8" y="378.9" class="st18" width="35.1" height="35.1"/>
									
										<rect x="269.8" y="378.9" transform="matrix(-1 -1.224647e-16 1.224647e-16 -1 574.712 792.944)" class="st19" width="35.1" height="35.1"/>
									<rect x="304.9" y="378.9" class="st20" width="35.1" height="35.1"/>
									
										<rect x="339.9" y="378.9" transform="matrix(-1 -1.224647e-16 1.224647e-16 -1 714.9415 792.944)" class="st21" width="35.1" height="35.1"/>
								</g>
								<g>
									
										<rect x="760.6" y="414" transform="matrix(-1 -1.224647e-16 1.224647e-16 -1 1556.3193 863.0588)" class="st22" width="35.1" height="35.1"/>
									<rect x="725.6" y="414" class="st4" width="35.1" height="35.1"/>
									
										<rect x="690.5" y="414" transform="matrix(-1 -1.224647e-16 1.224647e-16 -1 1416.0895 863.0588)" class="st23" width="35.1" height="35.1"/>
									<rect x="655.5" y="414" class="st6" width="35.1" height="35.1"/>
									<rect x="515.2" y="414" class="st7" width="35.1" height="35.1"/>
									
										<rect x="550.3" y="414" transform="matrix(-1 -1.224647e-16 1.224647e-16 -1 1135.6302 863.0588)" class="st24" width="35.1" height="35.1"/>
									<rect x="585.3" y="414" class="st9" width="35.1" height="35.1"/>
									
										<rect x="620.4" y="414" transform="matrix(-1 -1.224647e-16 1.224647e-16 -1 1275.8599 863.0588)" class="st25" width="35.1" height="35.1"/>
									
										<rect x="480.2" y="414" transform="matrix(-1 -1.224647e-16 1.224647e-16 -1 995.4007 863.0588)" class="st18" width="35.1" height="35.1"/>
									<rect x="445.1" y="414" class="st11" width="35.1" height="35.1"/>
									
										<rect x="410.1" y="414" transform="matrix(-1 -1.224647e-16 1.224647e-16 -1 855.1711 863.0588)" class="st7" width="35.1" height="35.1"/>
									<rect x="375" y="414" class="st8" width="35.1" height="35.1"/>
									<rect x="-45.7" y="414" class="st26" width="35.1" height="35.1"/>
									
										<rect x="-10.6" y="414" transform="matrix(-1 -1.224647e-16 1.224647e-16 -1 13.7936 863.0588)" class="st27" width="35.1" height="35.1"/>
									<rect x="24.4" y="414" class="st14" width="35.1" height="35.1"/>
									
										<rect x="59.5" y="414" transform="matrix(-1 -1.224647e-16 1.224647e-16 -1 154.0232 863.0588)" class="st28" width="35.1" height="35.1"/>
									
										<rect x="199.7" y="414" transform="matrix(-1 -1.224647e-16 1.224647e-16 -1 434.4824 863.0588)" class="st29" width="35.1" height="35.1"/>
									<rect x="164.7" y="414" class="st11" width="35.1" height="35.1"/>
									
										<rect x="129.6" y="414" transform="matrix(-1 -1.224647e-16 1.224647e-16 -1 294.2528 863.0588)" class="st30" width="35.1" height="35.1"/>
									<rect x="94.5" y="414" class="st31" width="35.1" height="35.1"/>
									<rect x="234.8" y="414" class="st16" width="35.1" height="35.1"/>
									
										<rect x="269.8" y="414" transform="matrix(-1 -1.224647e-16 1.224647e-16 -1 574.712 863.0588)" class="st16" width="35.1" height="35.1"/>
									<rect x="304.9" y="414" class="st20" width="35.1" height="35.1"/>
									
										<rect x="339.9" y="414" transform="matrix(-1 -1.224647e-16 1.224647e-16 -1 714.9415 863.0588)" class="st21" width="35.1" height="35.1"/>
								</g>
							</g>
						</g>
					</g>
				</g>
				<rect x="-83.4" y="-23" class="st32" width="916.8" height="528.1"/>
			</g>
		</g>
	</g>
</g>
</svg>
