<?xml version="1.0" encoding="utf-8"?>
<!-- Generator: Adobe Illustrator 22.0.1, SVG Export Plug-In . SVG Version: 6.00 Build 0)  -->
<svg version="1.1" id="Layer_1" xmlns="http://www.w3.org/2000/svg" xmlns:xlink="http://www.w3.org/1999/xlink" x="0px" y="0px"
	 viewBox="0 0 500 500" style="enable-background:new 0 0 500 500;" xml:space="preserve">
<style type="text/css">
	.st0{fill:none;}
	.st1{fill:#2CB3E8;}
	.st2{opacity:0.3;fill:url(#SVGID_1_);stroke:#000000;stroke-width:1.0006;stroke-miterlimit:10;}
</style>
<pattern  width="500" height="500" patternUnits="userSpaceOnUse" id="Retro_pattern" viewBox="520 -1003 500 500" style="overflow:visible;">
	<g>
		<rect x="520" y="-1003" class="st0" width="500" height="500"/>
		<g>
			
				<rect x="1265.8" y="-606.6" transform="matrix(0.707 -0.7072 0.7072 0.707 550.9775 824.0111)" class="st1" width="8.5" height="707.1"/>
			
				<rect x="1210.7" y="-680.6" transform="matrix(0.7071 -0.7071 0.7071 0.7071 589.1572 768.3375)" class="st1" width="22.7" height="707.1"/>
			
				<rect x="1188.2" y="-680.6" transform="matrix(0.707 -0.7072 0.7072 0.707 580.2082 746.4916)" class="st1" width="5.7" height="707.1"/>
		</g>
		<g>
			
				<rect x="765.8" y="-606.6" transform="matrix(0.707 -0.7072 0.7072 0.707 404.5022 470.429)" class="st1" width="8.5" height="707.1"/>
			
				<rect x="710.7" y="-680.6" transform="matrix(0.7071 -0.7071 0.7071 0.7071 442.7105 414.7841)" class="st1" width="22.7" height="707.1"/>
			
				<rect x="688.2" y="-680.6" transform="matrix(0.707 -0.7072 0.7072 0.707 433.7185 392.8951)" class="st1" width="5.7" height="707.1"/>
		</g>
		<g>
			
				<rect x="265.8" y="-606.6" transform="matrix(0.707 -0.7072 0.7072 0.707 258.0269 116.8469)" class="st1" width="8.5" height="707.1"/>
		</g>
		<g>
			
				<rect x="1265.8" y="-1106.6" transform="matrix(0.707 -0.7072 0.7072 0.707 904.5596 677.5358)" class="st1" width="8.5" height="707.1"/>
			
				<rect x="1263" y="-1084.6" transform="matrix(0.7071 -0.7071 0.7071 0.7071 888.8182 683.9312)" class="st1" width="14.2" height="707.1"/>
			
				<rect x="1241.7" y="-948.6" transform="matrix(0.7071 -0.7071 0.7071 0.7071 792.7206 723.7832)" class="st1" width="56.7" height="707.1"/>
			
				<rect x="1210.7" y="-1180.6" transform="matrix(0.7071 -0.7071 0.7071 0.7071 942.7105 621.8909)" class="st1" width="22.7" height="707.1"/>
			
				<rect x="1188.2" y="-1180.6" transform="matrix(0.707 -0.7072 0.7072 0.707 933.8046 600.0019)" class="st1" width="5.7" height="707.1"/>
		</g>
		<g>
			
				<rect x="765.8" y="-1106.6" transform="matrix(0.707 -0.7072 0.7072 0.707 758.0844 323.9537)" class="st1" width="8.5" height="707.1"/>
			
				<rect x="763" y="-1084.6" transform="matrix(0.7071 -0.7071 0.7071 0.7071 742.3889 330.395)" class="st1" width="14.2" height="707.1"/>
			
				<rect x="741.7" y="-948.6" transform="matrix(0.7071 -0.7071 0.7071 0.7071 646.274 370.2298)" class="st1" width="56.7" height="707.1"/>
			
				<rect x="710.7" y="-1180.6" transform="matrix(0.7071 -0.7071 0.7071 0.7071 796.2639 268.3375)" class="st1" width="22.7" height="707.1"/>
			
				<rect x="688.2" y="-1180.6" transform="matrix(0.707 -0.7072 0.7072 0.707 787.3149 246.4055)" class="st1" width="5.7" height="707.1"/>
			
				<rect x="772" y="-848.6" transform="matrix(0.7071 -0.7071 0.7071 0.7071 581.1283 412.9542)" class="st1" width="34" height="707.1"/>
		</g>
		<g>
			
				<rect x="265.8" y="-1106.6" transform="matrix(0.707 -0.7072 0.7072 0.707 611.609 -29.6284)" class="st1" width="8.5" height="707.1"/>
			
				<rect x="263" y="-1084.6" transform="matrix(0.7071 -0.7071 0.7071 0.7071 595.9595 -23.1412)" class="st1" width="14.2" height="707.1"/>
			
				<rect x="241.7" y="-948.6" transform="matrix(0.7071 -0.7071 0.7071 0.7071 499.8274 16.6764)" class="st1" width="56.7" height="707.1"/>
			
				<rect x="272" y="-848.6" transform="matrix(0.7071 -0.7071 0.7071 0.7071 434.6817 59.4008)" class="st1" width="34" height="707.1"/>
		</g>
		<g>
			
				<rect x="1265.8" y="-1606.6" transform="matrix(0.707 -0.7072 0.7072 0.707 1258.1417 531.0604)" class="st1" width="8.5" height="707.1"/>
			
				<rect x="1263" y="-1584.6" transform="matrix(0.7071 -0.7071 0.7071 0.7071 1242.3544 537.5018)" class="st1" width="14.2" height="707.1"/>
			
				<rect x="1241.7" y="-1448.6" transform="matrix(0.7071 -0.7071 0.7071 0.7071 1146.274 577.3366)" class="st1" width="56.7" height="707.1"/>
		</g>
		<g>
			
				<rect x="765.8" y="-1606.6" transform="matrix(0.707 -0.7072 0.7072 0.707 1111.6664 177.4783)" class="st1" width="8.5" height="707.1"/>
			
				<rect x="763" y="-1584.6" transform="matrix(0.7071 -0.7071 0.7071 0.7071 1095.925 183.9656)" class="st1" width="14.2" height="707.1"/>
			
				<rect x="741.7" y="-1448.6" transform="matrix(0.7071 -0.7071 0.7071 0.7071 999.8274 223.7832)" class="st1" width="56.7" height="707.1"/>
			
				<rect x="772" y="-1348.6" transform="matrix(0.7071 -0.7071 0.7071 0.7071 934.6817 266.5076)" class="st1" width="34" height="707.1"/>
		</g>
		<g>
			
				<rect x="265.8" y="-1606.6" transform="matrix(0.707 -0.7072 0.7072 0.707 965.1911 -176.1037)" class="st1" width="8.5" height="707.1"/>
			
				<rect x="263" y="-1584.6" transform="matrix(0.7071 -0.7071 0.7071 0.7071 949.4956 -169.5705)" class="st1" width="14.2" height="707.1"/>
			
				<rect x="241.7" y="-1448.6" transform="matrix(0.7071 -0.7071 0.7071 0.7071 853.3808 -129.7702)" class="st1" width="56.7" height="707.1"/>
			
				<rect x="272" y="-1348.6" transform="matrix(0.7071 -0.7071 0.7071 0.7071 788.2351 -87.0458)" class="st1" width="34" height="707.1"/>
		</g>
	</g>
</pattern>
<pattern  id="SVGID_1_" xlink:href="#Retro_pattern" patternTransform="matrix(1 0 0 1 -8.5 0.5)">
</pattern>
<rect class="st2" width="500" height="500"/>
</svg>
